<svg width="40" height="41" viewBox="0 0 40 41" fill="none" xmlns="http://www.w3.org/2000/svg">
<path d="M6 18C8.76142 18 11 15.7614 11 13C11 10.2386 8.76142 8 6 8C3.23858 8 1 10.2386 1 13C1 15.7614 3.23858 18 6 18Z" stroke="black" stroke-width="0.390016" stroke-miterlimit="10"/>
<path d="M29.6677 10H7.33232C7.14879 10 7 10.1756 7 10.3922V28.6078C7 28.8244 7.14879 29 7.33232 29H29.6677C29.8512 29 30 28.8244 30 28.6078V10.3922C30 10.1756 29.8512 10 29.6677 10Z" fill="#33D6D6"/>
<path d="M34.4552 26.7322C34.7349 26.6532 34.8822 26.6058 34.9411 26.5269C35 26.4479 35 26.3215 35 26.0687V24.9313C35 24.6785 35 24.5521 34.9411 24.4731C34.8822 24.3942 34.7349 24.3468 34.4552 24.2678C33.3802 23.9518 32.7175 22.7512 32.9826 21.6138C33.0562 21.2978 33.1004 21.1398 33.0562 21.045C33.0268 20.9503 32.909 20.8871 32.7028 20.7607L31.7604 20.1762C31.5542 20.0498 31.4511 19.9866 31.3628 20.0024C31.2744 20.0024 31.1714 20.1288 30.9652 20.3499C30.1553 21.203 28.83 21.203 28.0348 20.3499C27.8286 20.1288 27.7256 20.0182 27.6372 20.0024C27.5489 20.0024 27.4458 20.0498 27.2396 20.1762L26.2972 20.7607C26.091 20.8871 25.988 20.9503 25.9438 21.045C25.9143 21.1398 25.9438 21.2978 26.0174 21.6138C26.2972 22.7512 25.6198 23.9676 24.5448 24.2678C24.2651 24.3468 24.1178 24.3942 24.0589 24.4731C24 24.5521 24 24.6785 24 24.9313V26.0687C24 26.3215 24 26.4479 24.0589 26.5269C24.1178 26.6058 24.2651 26.6532 24.5448 26.7322C25.6198 27.0482 26.2825 28.2488 26.0174 29.3862C25.9438 29.7022 25.8996 29.8602 25.9438 29.955C25.9732 30.0497 26.091 30.1129 26.2972 30.2393L27.2396 30.8238C27.4458 30.9502 27.5489 31.0134 27.6372 30.9976C27.7256 30.9976 27.8286 30.8712 28.0348 30.6501C28.8447 29.797 30.17 29.797 30.9652 30.6501C31.1714 30.8712 31.2744 30.9818 31.3628 30.9976C31.4511 30.9976 31.5542 30.9502 31.7604 30.8238L32.7028 30.2393C32.909 30.1129 33.012 30.0497 33.0562 29.955C33.0857 29.8602 33.0562 29.7022 32.9826 29.3862C32.7028 28.2488 33.3802 27.0324 34.4552 26.7322Z" fill="#FFD502"/>
<path d="M31.259 25.1295C31.259 26.3073 30.3073 27.259 29.1295 27.259C27.9516 27.259 27 26.3073 27 25.1295C27 23.9516 27.9516 23 29.1295 23C30.3073 23 31.259 23.9516 31.259 25.1295Z" fill="white"/>
<path d="M28.0232 10.6552H27.2275V11.3338H28.0232V10.6552Z" fill="white"/>
<path d="M29.2868 10.6552H28.4912V11.3338H29.2868V10.6552Z" fill="white"/>
<g style="mix-blend-mode:multiply">
<path d="M22.6567 17H2.34335C2.15372 17 2 17.1811 2 17.4046V34.5954C2 34.8189 2.15372 35 2.34335 35H22.6567C22.8463 35 23 34.8189 23 34.5954V17.4046C23 17.1811 22.8463 17 22.6567 17Z" fill="#7733FF"/>
</g>
<path d="M20.0036 17.9163H19.208V18.5949H20.0036V17.9163Z" fill="white"/>
<path d="M21.2673 17.9163H20.4717V18.5949H21.2673V17.9163Z" fill="white"/>
</svg>
