<svg width="40" height="41" viewBox="0 0 40 41" fill="none" xmlns="http://www.w3.org/2000/svg">
<g clip-path="url(#clip0_847_3974)">
<path d="M27.0029 35.3254C30.5679 35.3254 33.4579 32.4354 33.4579 28.8704C33.4579 25.3054 30.5679 22.4154 27.0029 22.4154C23.4379 22.4154 20.5479 25.3054 20.5479 28.8704C20.5479 32.4354 23.4379 35.3254 27.0029 35.3254Z" stroke="#4E4E4E" stroke-width="0.62167" stroke-miterlimit="10"/>
<path d="M2.81295 22.1823C2.81295 29.7094 9.01703 35.8113 16.6701 35.8113C24.3233 35.8113 30.5273 29.7094 30.5273 22.1823C30.5273 14.6552 24.3233 8.55334 16.6701 8.55334C9.01703 8.55334 2.81295 14.6552 2.81295 22.1823Z" fill="#7733FF"/>
<path d="M16.9367 22.308L13.7909 5.51536C13.7909 5.51536 22.0574 3.73371 26.6576 8.4769C26.7442 8.38941 16.9355 22.308 16.9355 22.308L16.9367 22.308Z" fill="#FFD502"/>
<g style="mix-blend-mode:multiply">
<path d="M16.9368 22.3078L34.1694 34.0274C34.1694 34.0274 45.2547 17.1614 28.7518 5.49853" fill="#99EBEB"/>
</g>
</g>
<defs>
<clipPath id="clip0_847_3974">
<rect width="30.625" height="35" fill="white" transform="translate(37.8125 5.1875) rotate(90)"/>
</clipPath>
</defs>
</svg>
