<svg width="41" height="41" viewBox="0 0 41 41" fill="none" xmlns="http://www.w3.org/2000/svg">
<rect x="0.400391" y="0.986328" width="40" height="40" rx="16" fill="url(#paint0_linear_901_3612)"/>
<path d="M20.4007 29.3196L18.734 24.3196H12.0674L13.734 29.3196H20.4007ZM20.4007 29.3196H23.734" stroke="#141B34" stroke-linecap="round" stroke-linejoin="round"/>
<path d="M20.4001 21.8196V21.4029C20.4001 19.8316 20.4001 19.0459 19.9119 18.5577C19.4237 18.0696 18.6381 18.0696 17.0667 18.0696C15.4954 18.0696 14.7097 18.0696 14.2216 18.5577C13.7334 19.0459 13.7334 19.8316 13.7334 21.4029V21.8196" stroke="#141B34" stroke-linecap="round" stroke-linejoin="round"/>
<path d="M26.2337 21.8197C26.2337 22.7402 25.4876 23.4864 24.5671 23.4864C23.6466 23.4864 22.9004 22.7402 22.9004 21.8197C22.9004 20.8992 23.6466 20.1531 24.5671 20.1531C25.4876 20.1531 26.2337 20.8992 26.2337 21.8197Z" stroke="#141B34"/>
<path d="M18.7337 14.3197C18.7337 15.2402 17.9875 15.9864 17.0671 15.9864C16.1466 15.9864 15.4004 15.2402 15.4004 14.3197C15.4004 13.3993 16.1466 12.6531 17.0671 12.6531C17.9875 12.6531 18.7337 13.3993 18.7337 14.3197Z" stroke="#141B34"/>
<path d="M22.0674 25.5696H27.0674C27.9879 25.5696 28.7341 26.3157 28.7341 27.2362V27.6529C28.7341 28.5734 27.9879 29.3196 27.0674 29.3196H26.2341" stroke="#141B34" stroke-linecap="round"/>
<defs>
<linearGradient id="paint0_linear_901_3612" x1="20.4004" y1="0.986328" x2="20.4004" y2="40.9863" gradientUnits="userSpaceOnUse">
<stop stop-color="#ECFFFF"/>
<stop offset="1" stop-color="#DCD2FF"/>
</linearGradient>
</defs>
</svg>
