<svg width="40" height="41" viewBox="0 0 40 41" fill="none" xmlns="http://www.w3.org/2000/svg">
<rect y="0.986328" width="40" height="40" rx="16" fill="url(#paint0_linear_901_3556)"/>
<path d="M12.551 23.6475L12.8554 21.9213C13.2151 19.8811 13.395 18.861 14.1073 18.257C14.8196 17.6531 15.8428 17.6531 17.8891 17.6531H22.1103C24.1566 17.6531 25.1798 17.6531 25.8921 18.257C26.6043 18.861 26.7842 19.8811 27.1439 21.9213L27.4483 23.6475C27.9461 26.4707 28.195 27.8822 27.4286 28.8093C26.6622 29.7364 25.2463 29.7364 22.4146 29.7364H17.5848C14.7531 29.7364 13.3372 29.7364 12.5708 28.8093C11.8044 27.8822 12.0533 26.4707 12.551 23.6475Z" stroke="#141B34"/>
<path d="M16.25 17.6531L16.3898 15.9749C16.5463 14.0973 18.1159 12.6531 20 12.6531C21.8841 12.6531 23.4537 14.0973 23.6102 15.9749L23.75 17.6531" stroke="#141B34"/>
<path d="M22.5 20.1531C22.3917 21.3307 21.3047 22.2364 20 22.2364C18.6952 22.2364 17.6083 21.3307 17.5 20.1531" stroke="#141B34" stroke-linecap="round"/>
<defs>
<linearGradient id="paint0_linear_901_3556" x1="20" y1="0.986328" x2="20" y2="40.9863" gradientUnits="userSpaceOnUse">
<stop stop-color="#ECFFFF"/>
<stop offset="1" stop-color="#DCD2FF"/>
</linearGradient>
</defs>
</svg>
