<svg width="41" height="41" viewBox="0 0 41 41" fill="none" xmlns="http://www.w3.org/2000/svg">
<rect x="0.200195" y="0.986328" width="40" height="40" rx="16" fill="url(#paint0_linear_901_3602)"/>
<path d="M27.6524 25.0157C27.1055 21.7251 25.4029 19.2747 23.9227 17.8354C23.4919 17.4166 23.2766 17.2072 22.8009 17.0134C22.3251 16.8196 21.9162 16.8196 21.0984 16.8196H19.302C18.4842 16.8196 18.0753 16.8196 17.5995 17.0134C17.1238 17.2072 16.9085 17.4166 16.4777 17.8354C14.9975 19.2747 13.2949 21.7251 12.7479 25.0157C12.341 27.4641 14.5996 29.3196 17.1238 29.3196H23.2766C25.8008 29.3196 28.0594 27.4641 27.6524 25.0157Z" stroke="#141B34" stroke-linecap="round" stroke-linejoin="round"/>
<path d="M16.2471 14.6888C16.0751 14.4386 15.8259 14.0989 16.3407 14.0215C16.8698 13.9418 17.4192 14.304 17.957 14.2966C18.4435 14.2899 18.6914 14.0741 18.9573 13.766C19.2373 13.4416 19.6709 12.6531 20.1999 12.6531C20.7289 12.6531 21.1625 13.4416 21.4425 13.766C21.7084 14.0741 21.9562 14.2899 22.4427 14.2966C22.9805 14.304 23.53 13.9418 24.059 14.0215C24.5738 14.0989 24.3246 14.4386 24.1527 14.6888L23.3753 15.8203C23.0428 16.3043 22.8765 16.5463 22.5285 16.683C22.1806 16.8197 21.731 16.8197 20.8317 16.8197H19.568C18.6688 16.8197 18.2191 16.8197 17.8712 16.683C17.5232 16.5463 17.357 16.3043 17.0244 15.8203L16.2471 14.6888Z" stroke="#141B34" stroke-linejoin="round"/>
<path d="M21.5561 21.7519C21.3759 21.0868 20.4589 20.4866 19.3582 20.9356C18.2574 21.3846 18.0826 22.8291 19.7476 22.9826C20.5001 23.052 20.9908 22.9021 21.4399 23.3261C21.8892 23.7499 21.9726 24.9287 20.8243 25.2464C19.6759 25.5641 18.5389 25.0677 18.415 24.3628M20.0686 20.147V20.7806M20.0686 25.3441V25.9803" stroke="#141B34" stroke-linecap="round" stroke-linejoin="round"/>
<defs>
<linearGradient id="paint0_linear_901_3602" x1="20.2002" y1="0.986328" x2="20.2002" y2="40.9863" gradientUnits="userSpaceOnUse">
<stop stop-color="#ECFFFF"/>
<stop offset="1" stop-color="#DCD2FF"/>
</linearGradient>
</defs>
</svg>
