<svg width="41" height="41" viewBox="0 0 41 41" fill="none" xmlns="http://www.w3.org/2000/svg">
<rect x="0.599609" y="0.986328" width="40" height="40" rx="16" fill="url(#paint0_linear_901_3564)"/>
<path d="M20.5996 14.7363V15.9863M20.5996 15.9863V17.2363M20.5996 15.9863H21.8496M20.5996 15.9863H19.3496" stroke="#141B34" stroke-linecap="round"/>
<path d="M17.7548 13.1412C17.2666 13.6294 17.2666 14.4151 17.2666 15.9864C17.2666 17.5578 17.2666 18.3434 17.7548 18.8316C18.2429 19.3197 19.0286 19.3197 20.5999 19.3197C22.1713 19.3197 22.9569 19.3197 23.4451 18.8316C23.9333 18.3434 23.9333 17.5578 23.9333 15.9864C23.9333 14.4151 23.9333 13.6294 23.4451 13.1412C22.9569 12.6531 22.1713 12.6531 20.5999 12.6531C19.0286 12.6531 18.2429 12.6531 17.7548 13.1412Z" stroke="#141B34" stroke-linecap="round" stroke-linejoin="round"/>
<path d="M13.9326 29.3197V20.962C13.9326 18.2041 13.9326 16.8252 14.7869 15.9684C15.3298 15.4239 16.0831 15.2254 17.266 15.1531M27.266 29.3197V20.962C27.266 18.2041 27.266 16.8252 26.4117 15.9684C25.8687 15.4239 25.1155 15.2254 23.9326 15.1531" stroke="#141B34" stroke-linecap="round" stroke-linejoin="round"/>
<path d="M13.0996 29.3196H28.0996" stroke="#141B34" stroke-linecap="round" stroke-linejoin="round"/>
<path d="M18.5166 29.3197V27.2364C18.5166 26.4576 18.5166 26.0682 18.6841 25.7781C18.7938 25.5881 18.9516 25.4302 19.1416 25.3206C19.4317 25.1531 19.8211 25.1531 20.5999 25.1531C21.3788 25.1531 21.7682 25.1531 22.0583 25.3206C22.2483 25.4302 22.4061 25.5881 22.5158 25.7781C22.6833 26.0682 22.6833 26.4576 22.6833 27.2364V29.3197" stroke="#141B34" stroke-linecap="round"/>
<path d="M17.2741 21.8196H17.2666M20.5999 21.8196H20.5924M23.9342 21.8196H23.9268" stroke="#141B34" stroke-width="1.33333" stroke-linecap="round" stroke-linejoin="round"/>
<defs>
<linearGradient id="paint0_linear_901_3564" x1="20.5996" y1="0.986328" x2="20.5996" y2="40.9863" gradientUnits="userSpaceOnUse">
<stop stop-color="#ECFFFF"/>
<stop offset="1" stop-color="#DCD2FF"/>
</linearGradient>
</defs>
</svg>
