<svg width="14" height="14" viewBox="0 0 14 14" fill="none" xmlns="http://www.w3.org/2000/svg">
<g clip-path="url(#clip0_847_4165)">
<path d="M1.97312 9.52129L1.97312 9.5213C2.0014 10.1245 2.10301 10.4478 2.18592 10.6612C2.29629 10.9433 2.42642 11.1421 2.63806 11.3534L2.57751 11.4141M1.97312 9.52129L9.5483 12.0872M1.97312 9.52129C1.94205 8.86072 1.93494 8.66348 1.93189 6.98553V6.98552M1.97312 9.52129L1.93189 6.98552M2.57751 11.4141L2.63789 11.3532C2.85004 11.5638 3.04957 11.6936 3.33226 11.803L3.30132 11.8829M2.57751 11.4141C2.79807 11.633 3.00764 11.7692 3.30132 11.8829M2.57751 11.4141C2.35736 11.1943 2.22069 10.9854 2.10603 10.6923L3.30132 11.8829M3.30132 11.8829L3.3321 11.8029C3.54543 11.885 3.86909 11.9848 4.47241 12.0111C5.13356 12.0397 5.33059 12.046 7.00812 12.0428C8.68625 12.0397 8.88332 12.0326 9.54428 12.0015M9.54428 12.0015L9.5483 12.0872M9.54428 12.0015C9.54426 12.0015 9.54425 12.0015 9.54423 12.0015L9.5483 12.0872M9.54428 12.0015C10.147 11.9729 10.4706 11.8718 10.6833 11.7888M9.5483 12.0872C10.1605 12.058 10.4932 11.955 10.7144 11.8686M10.6833 11.7888L10.7144 11.8686M10.6833 11.7888C10.9657 11.6784 11.1646 11.5479 11.3758 11.3366M10.6833 11.7888C10.6833 11.7888 10.6833 11.7888 10.6833 11.7888L10.7144 11.8686M10.7144 11.8686L11.3758 11.3366M11.3758 11.3366C11.3757 11.3366 11.3757 11.3367 11.3756 11.3367L11.4364 11.3972L11.3758 11.3366ZM11.3758 11.3366C11.5868 11.1246 11.7161 10.9251 11.8255 10.6426L11.9054 10.6736L11.8255 10.6427C11.9077 10.4293 12.0074 10.1054 12.0337 9.50204L12.0337 9.50201C12.0627 8.8413 12.0688 8.64407 12.0655 6.96607C12.0625 5.28854 12.0554 5.09129 12.0239 4.43034L12.0239 4.43031C11.9954 3.82735 11.8945 3.50375 11.8114 3.29137L11.8113 3.29127C11.701 3.00842 11.5709 2.80996 11.359 2.59864C11.1472 2.38745 10.9478 2.25849 10.6648 2.14906L10.6648 2.14905C10.452 2.06665 10.128 1.96717 9.52503 1.94091L9.52499 1.94091C8.86385 1.91186 8.66666 1.90596 6.98871 1.9092C5.31114 1.91246 5.11411 1.91919 4.4532 1.95045L11.3758 11.3366ZM1.93189 6.98552C1.92863 5.30793 1.93475 5.11071 1.96358 4.44957L1.96359 4.4495M1.93189 6.98552L1.96359 4.4495M1.96359 4.4495C1.98942 3.84677 2.08985 3.52271 2.17177 3.30947M1.96359 4.4495L2.17177 3.30947M0.66079 4.39301L0.660791 4.39297C0.690684 3.7157 0.797129 3.24936 0.955664 2.8394L0.66079 4.39301ZM0.66079 4.39301C0.631387 5.06543 0.624663 5.28081 0.627929 6.98808C0.631195 8.69516 0.638711 8.91096 0.670774 9.58356L0.670774 9.58357M0.66079 4.39301L0.670774 9.58357M0.670774 9.58357C0.703127 10.2602 0.811442 10.7261 0.971653 11.1353C1.13697 11.5588 1.35897 11.9192 1.71805 12.2768C2.07699 12.6345 2.43841 12.8548 2.86246 13.0188L2.86248 13.0188L0.670774 9.58357ZM9.60617 13.3039L9.60613 13.3039C8.93374 13.3358 8.71815 13.3433 7.01048 13.3466C5.30366 13.3498 5.08806 13.3433 4.41564 13.3137C4.41564 13.3137 4.41563 13.3137 4.41562 13.3137L4.4194 13.2281L9.60617 13.3039ZM9.60617 13.3039C10.2831 13.2715 10.7488 13.1628 11.158 13.003L11.1581 13.003M9.60617 13.3039L11.1581 13.003M11.1581 13.003C11.5815 12.8373 11.9421 12.6158 12.2996 12.2566L11.1581 13.003ZM12.2794 1.675L12.2794 1.67503C12.6383 2.03285 12.86 2.393 13.0255 2.81648C13.1855 3.22576 13.2943 3.6915 13.3264 4.36885C13.3583 5.04106 13.366 5.25642 13.3693 6.96371C13.3726 8.6708 13.3656 8.8866 13.3362 9.55939C13.3362 9.55939 13.3362 9.5594 13.3362 9.55941L13.2506 9.55566L12.2794 1.675ZM12.2794 1.675C11.9205 1.3176 11.5591 1.09663 11.1349 0.933182C10.7252 0.774625 10.2589 0.667575 9.58183 0.638294M12.2794 1.675L2.83942 0.948947M2.17177 3.30947C2.28115 3.02644 2.41049 2.82736 2.62139 2.61528C2.83257 2.40333 3.03142 2.27359 3.31375 2.1632L2.17177 3.30947ZM4.39128 0.648104C3.71442 0.680038 3.24832 0.788753 2.83942 0.948947M4.39128 0.648104C5.06369 0.615819 5.27931 0.608501 6.98631 0.605235C8.69376 0.601968 8.90936 0.608495 9.58183 0.638294M4.39128 0.648104C4.39127 0.648104 4.39126 0.648105 4.39125 0.648105L4.39536 0.733721L4.39132 0.648102C4.39131 0.648103 4.3913 0.648103 4.39128 0.648104ZM2.83942 0.948947C2.41587 1.11407 2.0553 1.33631 1.69789 1.69521M2.83942 0.948947L1.69789 1.69521M9.58183 0.638294L9.57804 0.723924L9.58174 0.63829C9.58177 0.638291 9.5818 0.638293 9.58183 0.638294ZM1.69789 1.69521C1.34003 2.0543 1.11951 2.41548 0.95567 2.83939L1.69789 1.69521ZM6.99458 4.96656H6.9946C8.10426 4.9644 9.00586 5.86214 9.00803 6.972C9.01017 8.08183 8.11206 8.98309 7.00219 8.98526C5.89276 8.98738 4.99113 8.08947 4.98899 6.9796C4.98704 5.86994 5.88517 4.96852 6.99458 4.96656ZM11.1871 3.61295V3.61291C11.1862 3.14929 10.8093 2.77372 10.3455 2.77462C9.88164 2.77552 9.5063 3.15245 9.5072 3.61609C9.5081 4.0797 9.88501 4.45506 10.3486 4.45415C10.8124 4.45325 11.1878 4.07653 11.1871 3.61295ZM3.68544 6.98217C3.689 8.81215 5.17525 10.2924 7.00479 10.2888C8.83449 10.2852 10.3155 8.79942 10.312 6.96941C10.3084 5.14005 8.82199 3.65902 6.99203 3.66258C5.16246 3.66613 3.68189 5.15261 3.68544 6.98217ZM3.31378 2.16319C3.52684 2.07997 3.85005 1.97912 4.45318 1.95045L3.31378 2.16319Z" fill="#0C2459" stroke="#0C2459" stroke-width="0.171429"/>
</g>
<defs>
<clipPath id="clip0_847_4165">
<rect width="13.7143" height="13.7143" fill="white" transform="translate(0.141602 0.12915)"/>
</clipPath>
</defs>
</svg>
