<svg width="198" height="59" viewBox="0 0 198 59" fill="none" xmlns="http://www.w3.org/2000/svg">
<g clip-path="url(#clip0_847_4071)">
<path d="M22.543 26.5662L14.7282 30.3042L0.867666 0.986305L22.543 26.5662Z" fill="#33D6D6"/>
<path d="M26.9251 24.5166L36.0674 19.004L0.867575 0.986196L26.9251 24.5166Z" fill="#33D6D6"/>
<path d="M22.5433 26.5664L23.8291 21.7231L0.867998 0.986496L22.5433 26.5664Z" fill="#4EBDC7"/>
<path d="M196.262 13.5915C196.914 13.7526 197.439 13.8831 197.547 13.4777C197.656 13.0722 197.123 12.9389 196.464 12.775C195.806 12.6112 195.273 12.4806 195.181 12.8917C195.09 13.3027 195.617 13.4443 196.262 13.5915Z" fill="black"/>
<path d="M191.522 12.5805C192.183 12.7027 192.716 12.7999 192.799 12.3889C192.882 11.9779 192.341 11.8751 191.688 11.7529C191.036 11.6307 190.48 11.528 190.411 11.9418C190.341 12.3556 190.863 12.4584 191.522 12.5805Z" fill="black"/>
<path d="M186.722 11.8309C187.389 11.9142 187.928 11.9837 187.986 11.5671C188.044 11.1505 187.5 11.0811 186.828 10.995C186.156 10.9089 185.612 10.8395 185.564 11.2589C185.517 11.6782 186.056 11.7448 186.722 11.8309Z" fill="black"/>
<path d="M181.888 11.3475C182.557 11.3947 183.099 11.4364 183.135 11.017C183.171 10.5977 182.624 10.556 181.949 10.506C181.274 10.456 180.724 10.4172 180.7 10.8365C180.675 11.2559 181.219 11.2975 181.888 11.3475Z" fill="black"/>
<path d="M177.03 11.1144C177.702 11.131 178.247 11.1421 178.26 10.7228C178.274 10.3034 177.727 10.2896 177.05 10.2729C176.372 10.2562 175.825 10.2479 175.819 10.6672C175.814 11.0866 176.361 11.0922 177.03 11.1144Z" fill="black"/>
<path d="M172.171 11.1229C172.84 11.1062 173.384 11.0923 173.379 10.673C173.373 10.2536 172.823 10.2648 172.149 10.2814C171.474 10.2981 170.924 10.3119 170.938 10.7341C170.952 11.1562 171.499 11.1396 172.171 11.1229Z" fill="black"/>
<path d="M167.311 11.3534C167.983 11.3062 168.524 11.2701 168.499 10.848C168.474 10.4259 167.927 10.4675 167.252 10.5147C166.577 10.5619 166.03 10.598 166.064 11.0173C166.097 11.4367 166.641 11.4006 167.311 11.3534Z" fill="black"/>
<path d="M162.467 11.792C163.134 11.717 163.675 11.6587 163.633 11.2366C163.592 10.8145 163.045 10.8783 162.373 10.9589C161.701 11.0394 161.156 11.0949 161.206 11.5143C161.256 11.9336 161.798 11.867 162.467 11.792Z" fill="black"/>
<path d="M157.643 12.4225C158.307 12.3225 158.843 12.242 158.785 11.8254C158.726 11.4088 158.185 11.4894 157.518 11.5894C156.852 11.6894 156.31 11.7726 156.374 12.1864C156.438 12.6002 156.98 12.5225 157.643 12.4225Z" fill="black"/>
<path d="M152.847 13.2305C153.508 13.1083 154.044 13.0083 153.958 12.5917C153.872 12.1752 153.347 12.2779 152.683 12.4029C152.019 12.5279 151.478 12.6279 151.572 13.0416C151.667 13.4554 152.186 13.3527 152.847 13.2305Z" fill="black"/>
<path d="M148.073 14.205C148.731 14.0578 149.262 13.9412 149.184 13.5302C149.106 13.1192 148.562 13.2358 147.898 13.383C147.234 13.5302 146.701 13.6468 146.787 14.0578C146.873 14.4688 147.415 14.3494 148.073 14.205Z" fill="black"/>
<path d="M143.325 15.33C143.977 15.1634 144.508 15.0301 144.408 14.6218C144.308 14.2136 143.775 14.3441 143.119 14.5136C142.464 14.683 141.928 14.8163 142.036 15.2217C142.144 15.6272 142.664 15.4966 143.325 15.33Z" fill="black"/>
<path d="M138.618 16.5937C139.265 16.4104 139.79 16.2604 139.678 15.8549C139.567 15.4495 139.04 15.5994 138.387 15.7827C137.734 15.966 137.21 16.116 137.329 16.5215C137.448 16.9269 137.971 16.777 138.618 16.5937Z" fill="black"/>
<path d="M133.941 17.9849C134.585 17.7849 135.104 17.6211 134.982 17.2184C134.86 16.8157 134.335 16.9795 133.691 17.1823C133.046 17.385 132.519 17.5461 132.646 17.946C132.774 18.3459 133.296 18.1848 133.941 17.9849Z" fill="black"/>
<path d="M129.303 19.493C129.939 19.2764 130.456 19.1014 130.325 18.7015C130.195 18.3016 129.673 18.4793 129.034 18.7015C128.395 18.9237 127.873 19.0931 128.012 19.4902C128.151 19.8874 128.665 19.7013 129.303 19.493Z" fill="black"/>
<path d="M124.71 21.1147C125.34 20.8815 125.851 20.6926 125.71 20.2816C125.568 19.8706 125.051 20.0788 124.418 20.3121C123.785 20.5454 123.269 20.7398 123.419 21.1313C123.568 21.5229 124.079 21.3508 124.71 21.1147Z" fill="black"/>
<path d="M120.189 22.9062C120.805 22.6451 121.3 22.4313 121.147 22.0425C120.994 21.6537 120.483 21.8675 119.861 22.1314C119.239 22.3952 118.731 22.6118 118.9 22.9951C119.07 23.3783 119.569 23.1672 120.189 22.9062Z" fill="black"/>
<path d="M115.779 24.9388C116.379 24.6361 116.862 24.3834 116.681 24.014C116.501 23.6446 116.009 23.8807 115.401 24.1861C114.793 24.4916 114.29 24.7416 114.499 25.1082C114.707 25.4747 115.171 25.2387 115.779 24.9388Z" fill="black"/>
<path d="M111.538 27.2855C112.11 26.9356 112.571 26.6523 112.371 26.2885C112.172 25.9247 111.691 26.2135 111.111 26.5662C110.53 26.9189 110.058 27.2105 110.278 27.5632C110.497 27.9159 110.966 27.6354 111.538 27.2855Z" fill="black"/>
<path d="M107.548 30.0126C108.075 29.6099 108.503 29.2823 108.259 28.9379C108.014 28.5935 107.575 28.9379 107.037 29.3461C106.498 29.7544 106.056 30.096 106.323 30.4209C106.589 30.7458 107.017 30.4181 107.548 30.0126Z" fill="black"/>
<path d="M103.901 33.1675L103.943 33.1259C104.179 33.2938 104.433 33.4344 104.701 33.5453C105.303 33.823 105.789 34.0562 105.984 33.6841C106.178 33.312 105.678 33.0759 105.059 32.7843C104.848 32.6871 104.654 32.5954 104.476 32.5316C104.539 32.4604 104.574 32.3685 104.574 32.2733C104.574 32.1781 104.539 32.0862 104.476 32.0151C104.198 31.7068 103.795 32.0928 103.307 32.5705C102.818 33.0482 102.429 33.4425 102.737 33.7341C103.046 34.0257 103.418 33.6285 103.901 33.1675Z" fill="black"/>
<path d="M100.079 36.3138C99.6766 36.8692 99.349 37.3163 99.7017 37.5468C100.054 37.7773 100.368 37.3441 100.76 36.8053C101.151 36.2665 101.465 35.836 101.137 35.5722C100.81 35.3084 100.482 35.7583 100.079 36.3138Z" fill="black"/>
<path d="M97.4888 41.8931C97.886 42.0347 98.0998 41.546 98.3664 40.9433C98.633 40.3407 98.8441 39.8492 98.4692 39.6548C98.0942 39.4604 97.872 39.9741 97.5943 40.6045C97.3166 41.2349 97.0945 41.7514 97.4888 41.8931Z" fill="black"/>
<path d="M96.2504 45.3948C96.1644 46.0835 96.0977 46.6445 96.5282 46.6584C96.9586 46.6723 97.0169 46.1474 97.0974 45.4975C97.1779 44.8477 97.2418 44.3257 96.8197 44.2368C96.3976 44.1479 96.3365 44.695 96.2504 45.3948Z" fill="black"/>
<path d="M96.6478 49.0942C96.234 49.1553 96.3146 49.7218 96.4979 50.3966C96.6811 51.0715 96.8894 51.6019 97.2782 51.4492C97.667 51.2964 97.4781 50.8076 97.3087 50.1772C97.1393 49.5468 97.0672 49.0303 96.6478 49.0942Z" fill="black"/>
<path d="M98.3606 53.6348C98.0023 53.8542 98.2967 54.3402 98.7244 54.8928C99.1521 55.4455 99.5575 55.8564 99.8519 55.5648C100.146 55.2733 99.788 54.8956 99.3909 54.3791C98.9937 53.8625 98.7216 53.4126 98.3606 53.6348Z" fill="black"/>
<path d="M102.597 58.117C103.23 58.4281 103.785 58.5975 103.91 58.1976C104.035 57.7977 103.544 57.6422 102.963 57.3645C102.383 57.0867 101.955 56.7868 101.719 57.1367C101.483 57.4866 101.961 57.806 102.597 58.117Z" fill="black"/>
<path d="M107.47 58.1166C106.837 58.2055 106.32 58.1805 106.307 58.6054C106.293 59.0303 106.876 59.0497 107.581 58.9525C108.287 58.8553 108.845 58.6748 108.717 58.2777C108.589 57.8805 108.103 58.025 107.47 58.1166Z" fill="black"/>
<path d="M111.616 56.1925C111.127 56.6146 110.688 56.8895 110.916 57.245C111.144 57.6005 111.633 57.2894 112.166 56.8284C112.699 56.3674 113.077 55.9398 112.763 55.6621C112.449 55.3844 112.116 55.7704 111.616 56.1925Z" fill="black"/>
<path d="M114.205 53.6929C114.566 53.9095 114.86 53.4152 115.152 52.7875C115.443 52.1599 115.624 51.6156 115.227 51.4795C114.83 51.3434 114.671 51.8434 114.394 52.4349C114.116 53.0264 113.841 53.479 114.205 53.6929Z" fill="black"/>
<path d="M115.937 46.6778C115.515 46.7028 115.551 47.2332 115.515 47.8747C115.479 48.5162 115.396 49.0466 115.815 49.1133C116.234 49.1799 116.32 48.6162 116.357 47.9192C116.393 47.2221 116.357 46.6389 115.937 46.6778Z" fill="black"/>
<path d="M115.546 44.2703C115.962 44.1537 115.785 43.6121 115.51 42.9762C115.235 42.3402 115.037 41.807 114.676 41.9959C114.315 42.1847 114.496 42.6734 114.74 43.2816C114.985 43.8898 115.151 44.3786 115.546 44.2703Z" fill="black"/>
<path d="M111.857 38.03C111.554 38.3216 111.89 38.7326 112.307 39.238C112.724 39.7435 113.065 40.1517 113.418 39.9129C113.771 39.674 113.418 39.2352 112.965 38.702C112.513 38.1688 112.16 37.7273 111.857 38.03Z" fill="black"/>
<path d="M108.095 34.9196C107.867 35.2723 108.297 35.5889 108.831 35.9804C109.364 36.372 109.797 36.683 110.067 36.3609C110.336 36.0387 109.883 35.7055 109.328 35.3C108.772 34.8945 108.322 34.5669 108.095 34.9196Z" fill="black"/>
<path d="M100.199 31.8452C100.843 32.0146 101.349 32.1979 101.482 31.7925C101.615 31.387 101.091 31.2093 100.432 31.0371C99.7742 30.8649 99.2466 30.7039 99.1438 31.1121C99.041 31.5203 99.5576 31.6647 100.199 31.8452Z" fill="black"/>
<path d="M95.486 30.7876C96.1469 30.8987 96.6801 30.9875 96.7606 30.5765C96.8412 30.1655 96.2968 30.0711 95.6275 29.9572C94.9583 29.8434 94.4112 29.7545 94.3529 30.1711C94.2946 30.5876 94.8278 30.6765 95.486 30.7876Z" fill="black"/>
<path d="M90.6818 30.2267C91.3483 30.2739 91.8898 30.31 91.9287 29.8906C91.9676 29.4713 91.4177 29.4352 90.7401 29.388C90.0625 29.3408 89.5126 29.3047 89.4932 29.724C89.4738 30.1434 90.0153 30.1822 90.6818 30.2267Z" fill="black"/>
<path d="M85.8354 30.0877C86.5047 30.0877 87.049 30.0878 87.0517 29.6573C87.0545 29.2269 86.4964 29.2408 85.8271 29.2463C85.1578 29.2519 84.5996 29.2463 84.6107 29.6795C84.6218 30.1127 85.1633 30.0933 85.8354 30.0877Z" fill="black"/>
<path d="M80.9788 30.2763C81.6509 30.2319 82.1925 30.1958 82.1702 29.7764C82.148 29.3571 81.6009 29.3932 80.9233 29.4376C80.2457 29.4821 79.7014 29.5182 79.7347 29.9375C79.768 30.3569 80.3096 30.3235 80.9788 30.2763Z" fill="black"/>
<path d="M76.1323 30.7014C76.8016 30.6292 77.3431 30.5736 77.3015 30.1459C77.2598 29.7183 76.7155 29.7849 76.0435 29.8682C75.3714 29.9516 74.8271 29.9988 74.8743 30.4237C74.9215 30.8486 75.4575 30.7708 76.1323 30.7014Z" fill="black"/>
<path d="M71.2919 31.2678C71.9584 31.1845 72.4999 31.1151 72.4499 30.6958C72.3999 30.2765 71.8557 30.3487 71.1864 30.4181C70.5171 30.4875 69.9727 30.5736 70.0255 30.9901C70.0783 31.4067 70.6226 31.365 71.2919 31.2678Z" fill="black"/>
<path d="M66.4522 31.8983C67.1187 31.8094 67.663 31.74 67.6074 31.3207C67.5519 30.9013 67.0103 30.9763 66.341 31.0624C65.6718 31.1485 65.1303 31.2207 65.1858 31.64C65.2413 32.0594 65.7829 31.9844 66.4522 31.8983Z" fill="black"/>
<path d="M61.6008 32.5093C62.2728 32.4288 62.8144 32.3649 62.7644 31.9539C62.7144 31.5429 62.1701 31.6012 61.5008 31.6762C60.8315 31.7511 60.2928 31.8178 60.34 32.2316C60.3872 32.6454 60.9287 32.587 61.6008 32.5093Z" fill="black"/>
<path d="M56.7324 33.0177C57.4044 32.9593 57.9515 32.9094 57.9099 32.49C57.8682 32.0707 57.3267 32.1207 56.6574 32.179C55.9881 32.2373 55.4466 32.2873 55.4771 32.7067C55.5077 33.126 56.0576 33.076 56.7324 33.0177Z" fill="black"/>
<path d="M51.8387 33.3368C52.5163 33.309 53.0662 33.2867 53.0412 32.8674C53.0162 32.448 52.4858 32.4703 51.8054 32.4953C51.125 32.5203 50.5918 32.5453 50.6029 32.9646C50.614 33.3839 51.1611 33.3645 51.8387 33.3368Z" fill="black"/>
<path d="M46.929 33.3698C47.6067 33.3893 48.1565 33.406 48.1621 32.9838C48.1676 32.5617 47.6233 32.5478 46.9541 32.5284C46.2848 32.5089 45.7404 32.4951 45.721 32.9144C45.7015 33.3338 46.2487 33.3504 46.929 33.3698Z" fill="black"/>
<path d="M42.0245 33.0146C42.7021 33.0952 43.2492 33.1618 43.2881 32.7369C43.3269 32.312 42.7882 32.2537 42.1245 32.1815C41.4607 32.1093 40.9247 32.0399 40.8637 32.4592C40.8026 32.8786 41.3497 32.9341 42.0245 33.0146Z" fill="black"/>
<path d="M37.1733 32.1702C37.837 32.3229 38.3758 32.4479 38.4591 32.0369C38.5424 31.6259 38.0148 31.5009 37.3649 31.3509C36.7151 31.201 36.1902 31.0732 36.0791 31.4842C35.968 31.8952 36.5095 32.0147 37.1733 32.1702Z" fill="black"/>
<path d="M32.899 30.9319C33.2906 31.0708 33.6072 31.1846 33.7321 30.7847C33.8571 30.3848 33.5544 30.2766 33.1767 30.1405C32.799 30.0044 32.4852 29.8933 32.3436 30.2877C32.202 30.682 32.5074 30.7931 32.899 30.9319Z" fill="black"/>
</g>
<defs>
<clipPath id="clip0_847_4071">
<rect width="196.7" height="58.0137" fill="white" transform="translate(197.567 59) rotate(180)"/>
</clipPath>
</defs>
</svg>
