<svg width="14" height="14" viewBox="0 0 14 14" fill="none" xmlns="http://www.w3.org/2000/svg">
<path d="M1.79939 12.3971V5.36652H3.57978V12.3971H1.79939Z" fill="#0C2459" stroke="#0C2459" stroke-width="0.571429"/>
<path d="M3.78481 2.66261L3.78482 2.66487C3.7854 2.81077 3.75723 2.95536 3.70193 3.09037C3.64663 3.22539 3.56528 3.34819 3.46252 3.45176C3.35976 3.55534 3.2376 3.63766 3.10302 3.69403C2.96879 3.75025 2.82483 3.77956 2.67931 3.78028C2.53379 3.77956 2.38984 3.75025 2.2556 3.69403C2.12103 3.63766 1.99887 3.55534 1.89611 3.45177C1.79335 3.34819 1.712 3.22539 1.6567 3.09037C1.6014 2.95536 1.57323 2.81077 1.57382 2.66487L1.57381 2.66261C1.57323 2.5167 1.6014 2.37211 1.6567 2.2371C1.712 2.10208 1.79335 1.97928 1.89611 1.87571C1.99887 1.77213 2.12103 1.68981 2.2556 1.63344C2.38984 1.57722 2.53379 1.54791 2.67931 1.54719C2.82483 1.54791 2.96879 1.57722 3.10302 1.63344C3.2376 1.68981 3.35976 1.77213 3.46252 1.87571C3.56528 1.97928 3.64663 2.10208 3.70193 2.2371C3.75723 2.37211 3.7854 2.5167 3.78481 2.66261Z" fill="#0C2459" stroke="#0C2459" stroke-width="0.571429"/>
<path d="M7.34661 8.69866L7.34662 8.69906L7.35174 12.4044H5.6656V5.37384H7.35214V6.10945V7.11241L7.88067 6.26001C8.09584 5.913 8.3972 5.62763 8.75542 5.43169C9.11364 5.23575 9.51649 5.13592 9.92475 5.14193L9.92475 5.14196H9.92895C10.674 5.14196 11.2836 5.3687 11.7073 5.80199C12.1312 6.23547 12.4036 6.91097 12.4036 7.87607V12.4044H10.6342V8.69866C10.6342 8.13397 10.5495 7.63501 10.2965 7.27233C10.028 6.88753 9.60825 6.70705 9.06772 6.70705C8.52693 6.70705 8.08028 6.89212 7.77541 7.2625C7.47778 7.6241 7.34661 8.12445 7.34661 8.69866Z" fill="#0C2459" stroke="#0C2459" stroke-width="0.571429"/>
</svg>
