<svg width="205" height="50" viewBox="0 0 205 50" fill="none" xmlns="http://www.w3.org/2000/svg">
<g clip-path="url(#clip0_4879_15784)">
<path d="M11.2835 19.5851C11.0975 19.349 10.8935 19.1278 10.6733 18.9232C9.04349 17.363 7.53293 15.6775 5.8256 14.1928C4.69865 13.199 3.0092 11.7739 1.70933 13.3978C0.781129 14.5625 0.536657 16.24 0.318024 17.6671C0.318024 17.7029 0.308086 17.7386 0.302123 17.7744C0.0283123 19.5172 -0.0596343 21.2841 0.039763 23.0455C0.437279 30.0835 4.29517 36.561 10.0174 40.5978C15.0698 44.1635 21.7441 46.0298 27.8341 44.4159C28.6553 44.2233 29.4575 43.9573 30.2311 43.6209C30.9685 43.273 31.6522 42.7245 31.9503 41.9672C32.5466 40.4566 30.9049 39.2283 30.0005 38.2763C29.0962 37.3242 28.1223 36.3523 27.196 35.3764C27.041 35.2134 26.886 35.0524 26.725 34.8954C26.4586 34.633 26.1804 34.3806 25.9041 34.1262C25.6483 33.8713 25.3754 33.6343 25.0872 33.4166C24.6827 33.0927 24.1713 32.9324 23.6542 32.9675C23.4589 32.9958 23.2699 33.0577 23.0957 33.1503C22.6909 33.3799 22.3372 33.6897 22.0562 34.0606C21.3665 34.8974 20.7722 35.6845 19.683 35.9945C18.7137 36.2488 17.6883 36.1833 16.7593 35.8077C16.5509 35.7248 16.3478 35.6292 16.1511 35.5215C15.0718 34.9252 14.2708 34.0487 13.3685 33.2457C12.4335 32.4462 11.5511 31.5871 10.727 30.6738C9.7451 29.5727 8.98386 28.2668 8.74933 26.7901C8.55057 25.4862 9.28399 24.4686 10.1267 23.5642C10.9695 22.6599 12.2355 21.6224 11.6711 20.243C11.572 20.0073 11.4416 19.786 11.2835 19.5851Z" fill="#6F4AF2"/>
<path d="M13.8196 15.4345C13.6427 15.6551 13.4618 15.8717 13.271 16.0824C12.8258 16.5714 12.15 16.7801 11.5935 16.307C11.2099 15.9791 11.1662 15.4941 11.2735 15.029C11.6889 13.2124 12.6966 11.5309 13.913 10.1376C14.023 10.013 14.1343 9.88979 14.2469 9.76789C14.8699 9.10174 15.5473 8.48877 16.2723 7.93534C17.1143 7.29317 18.0224 6.7428 18.9813 6.2936C20.0621 5.79172 21.2031 5.43164 22.3761 5.2223C23.7291 4.98566 25.1082 4.93683 26.4745 5.07721C27.5504 5.18579 28.6146 5.38931 29.6546 5.6854C32.078 6.39229 34.2746 7.72012 36.0268 9.53733L36.0527 9.56317C36.983 10.5189 37.7733 11.6016 38.4 12.7791C39.158 14.2181 39.6693 15.7741 39.9125 17.3823C40.2074 19.4351 40.1725 21.5219 39.8092 23.5637C39.7635 23.838 39.7138 24.1122 39.6601 24.3845C39.6283 24.5356 39.8469 24.7721 39.9205 24.8953C40.0298 25.0822 40.1391 25.269 40.2445 25.4578C40.4233 25.7739 40.5963 26.0958 40.7632 26.4178C40.9302 26.7398 41.123 27.026 41.28 27.3421C41.7093 28.0993 42.2738 29.4946 41.1508 29.9577C40.5545 30.2022 39.841 30.1366 39.2129 30.067L39.0976 30.0551C38.4258 29.9776 37.75 29.9299 37.0782 29.8563C36.9888 29.8563 35.9155 29.6775 35.8857 29.7411L35.8738 29.7609L35.844 29.8206L35.7943 29.914L35.7267 30.0392L35.6392 30.1942C35.6035 30.2558 35.5697 30.3175 35.5339 30.3771L35.4107 30.5758C35.365 30.6514 35.3192 30.7269 35.2715 30.8024L35.1165 31.0449C35.0589 31.1324 35.0032 31.2178 34.9436 31.3033C34.884 31.3888 34.8204 31.4842 34.7587 31.5716C34.6971 31.6591 34.6256 31.7584 34.56 31.8499C34.4944 31.9413 34.4189 32.0486 34.3453 32.1341L34.1168 32.4203C34.0372 32.5157 33.9577 32.6191 33.8743 32.7065C33.7908 32.794 33.7073 32.9053 33.6199 32.9888C33.5324 33.0722 33.445 33.1736 33.3535 33.265C33.2621 33.3565 33.1707 33.4439 33.0772 33.5314C32.9838 33.6188 32.8785 33.7023 32.7891 33.7858C32.6996 33.8693 32.5903 33.9468 32.4889 34.0243C32.3876 34.1018 32.2902 34.1753 32.1809 34.2449C32.0715 34.3145 31.9722 34.382 31.8648 34.4437C31.7575 34.5053 31.6482 34.5649 31.5389 34.6186C31.4295 34.6722 31.3163 34.7219 31.203 34.7676C31.0897 34.8134 30.9784 34.8511 30.8631 34.8869C30.748 34.9206 30.6312 34.9484 30.5133 34.9704C30.3958 34.9939 30.277 35.0105 30.1575 35.0201C30.0379 35.0303 29.9178 35.0336 29.7977 35.03C29.6746 35.0273 29.5518 35.0167 29.43 34.9982C29.3051 34.9852 29.1811 34.9653 29.0584 34.9386C28.9259 34.9028 28.8006 34.8611 28.6827 34.8134C28.5531 34.7613 28.4263 34.7022 28.3031 34.6365C28.1719 34.5669 28.0447 34.4894 27.9215 34.4079C27.8499 34.3602 27.7823 34.3085 27.7128 34.2588L27.6074 34.1833C27.5886 34.1723 27.5712 34.159 27.5558 34.1435C27.5558 34.1435 27.5558 34.1435 27.5558 34.1296C27.6866 34.0902 27.8117 34.0334 27.9274 33.9607L27.9592 33.9428C28.2912 33.7778 28.6131 33.591 28.9272 33.3942C29.3771 33.1134 29.8123 32.8095 30.231 32.4839C30.7363 32.0935 31.2157 31.6705 31.6661 31.2178C32.1649 30.7181 32.6204 30.1769 33.0276 29.5999C33.46 28.9873 33.8233 28.3287 34.1108 27.6362C34.1684 27.4931 34.2221 27.35 34.2758 27.2049C34.2785 27.1939 34.2848 27.1841 34.2936 27.1771C34.3039 27.1733 34.3152 27.1733 34.3254 27.1771H36.7105C36.953 27.1771 37.1955 27.1771 37.438 27.1771C37.6169 27.1771 37.7938 27.1989 37.9727 27.195C38.0223 27.195 38.1197 27.2168 38.1575 27.1731C38.1953 27.1294 38.1197 27.0002 38.0899 26.9485C37.7103 26.2946 37.6447 25.5453 37.4758 24.8218C37.3724 24.3965 37.3207 23.9493 37.2591 23.518C37.1816 22.9753 37.114 22.4327 37.0504 21.8901C36.9489 20.8169 36.7622 19.7535 36.4919 18.71C36.0279 17.0059 35.2233 15.4136 34.1267 14.0293C34.0035 13.8802 33.8763 13.7311 33.7471 13.588C32.1451 11.8191 30.0025 10.6762 27.6949 10.1257C26.5366 9.85612 25.3538 9.70561 24.165 9.67646C23.8086 9.66746 23.4521 9.6814 23.0976 9.7182C22.1782 9.81364 21.2734 10.0185 20.4025 10.3284C19.1341 10.7764 17.9447 11.4224 16.8785 12.2424C16.2225 12.7465 15.6119 13.3071 15.0539 13.918C14.6146 14.3989 14.2271 14.9257 13.8196 15.4345Z" fill="#33D6D6"/>
<path d="M18.9876 28.7271C20.0853 28.7271 20.9752 27.8372 20.9752 26.7395C20.9752 25.6418 20.0853 24.752 18.9876 24.752C17.8899 24.752 17 25.6418 17 26.7395C17 27.8372 17.8899 28.7271 18.9876 28.7271Z" fill="#33D6D6"/>
<path d="M23.7577 24.7515C24.8555 24.7515 25.7453 23.8617 25.7453 22.7639C25.7453 21.6662 24.8555 20.7764 23.7577 20.7764C22.66 20.7764 21.7702 21.6662 21.7702 22.7639C21.7702 23.8617 22.66 24.7515 23.7577 24.7515Z" fill="#33D6D6" fill-opacity="0.6"/>
<path d="M28.5279 20.9752C29.6256 20.9752 30.5155 20.0853 30.5155 18.9876C30.5155 17.8899 29.6256 17 28.5279 17C27.4302 17 26.5403 17.8899 26.5403 18.9876C26.5403 20.0853 27.4302 20.9752 28.5279 20.9752Z" fill="#33D6D6" fill-opacity="0.4"/>
</g>
<mask id="path-6-outside-1_4879_15784" maskUnits="userSpaceOnUse" x="49.0258" y="10" width="154" height="31" fill="black">
<rect fill="white" x="49.0258" y="10" width="154" height="31"/>
<path d="M57.8258 34.4667C54.1592 34.4667 51.5925 32.9889 50.1258 30.0333L54.0925 27.7667C54.8258 29.2333 56.0703 29.9667 57.8258 29.9667C59.0481 29.9667 59.9592 29.6778 60.5592 29.1C61.1592 28.5222 61.4592 27.7333 61.4592 26.7333V10.6667H66.0258V26.7333C66.0258 29.1778 65.2592 31.0778 63.7258 32.4333C62.1925 33.7889 60.2258 34.4667 57.8258 34.4667ZM84.6743 31.9333C82.9632 33.6222 80.8743 34.4667 78.4076 34.4667C75.941 34.4667 73.8521 33.6222 72.141 31.9333C70.4521 30.2222 69.6076 28.1333 69.6076 25.6667C69.6076 23.2 70.4521 21.1222 72.141 19.4333C73.8521 17.7222 75.941 16.8667 78.4076 16.8667C80.8743 16.8667 82.9632 17.7222 84.6743 19.4333C86.3854 21.1222 87.241 23.2 87.241 25.6667C87.241 28.1333 86.3854 30.2222 84.6743 31.9333ZM75.1743 28.9667C76.041 29.8333 77.1187 30.2667 78.4076 30.2667C79.6965 30.2667 80.7743 29.8333 81.641 28.9667C82.5076 28.1 82.941 27 82.941 25.6667C82.941 24.3333 82.5076 23.2333 81.641 22.3667C80.7743 21.5 79.6965 21.0667 78.4076 21.0667C77.1187 21.0667 76.041 21.5 75.1743 22.3667C74.3298 23.2333 73.9076 24.3333 73.9076 25.6667C73.9076 27 74.3298 28.1 75.1743 28.9667ZM100.108 21.4667H96.3412V28.4C96.3412 28.9778 96.4857 29.4 96.7745 29.6667C97.0634 29.9333 97.4857 30.0889 98.0412 30.1333C98.5968 30.1556 99.2857 30.1444 100.108 30.1V34C97.1523 34.3333 95.0634 34.0556 93.8412 33.1667C92.6412 32.2778 92.0412 30.6889 92.0412 28.4V21.4667H89.1412V17.3333H92.0412V13.9667L96.3412 12.6667V17.3333H100.108V21.4667ZM113.767 16.8667C116.011 16.8667 117.922 17.7222 119.5 19.4333C121.1 21.1222 121.9 23.2 121.9 25.6667C121.9 28.1333 121.1 30.2222 119.5 31.9333C117.922 33.6222 116.011 34.4667 113.767 34.4667C111.433 34.4667 109.633 33.6556 108.367 32.0333V40.6667H104.067V17.3333H108.367V19.3C109.633 17.6778 111.433 16.8667 113.767 16.8667ZM109.667 29.0667C110.533 29.9333 111.633 30.3667 112.967 30.3667C114.3 30.3667 115.4 29.9333 116.267 29.0667C117.156 28.1778 117.6 27.0444 117.6 25.6667C117.6 24.2889 117.156 23.1667 116.267 22.3C115.4 21.4111 114.3 20.9667 112.967 20.9667C111.633 20.9667 110.533 21.4111 109.667 22.3C108.8 23.1667 108.367 24.2889 108.367 25.6667C108.367 27.0444 108.8 28.1778 109.667 29.0667ZM134.866 16.8667C136.688 16.8667 138.188 17.4778 139.366 18.7C140.566 19.9222 141.166 21.6111 141.166 23.7667V34H136.866V24.3C136.866 23.1889 136.566 22.3444 135.966 21.7667C135.366 21.1667 134.566 20.8667 133.566 20.8667C132.455 20.8667 131.566 21.2111 130.899 21.9C130.233 22.5889 129.899 23.6222 129.899 25V34H125.599V10.6667H129.899V19.2C130.944 17.6444 132.599 16.8667 134.866 16.8667ZM159.704 31.9333C157.993 33.6222 155.904 34.4667 153.438 34.4667C150.971 34.4667 148.882 33.6222 147.171 31.9333C145.482 30.2222 144.638 28.1333 144.638 25.6667C144.638 23.2 145.482 21.1222 147.171 19.4333C148.882 17.7222 150.971 16.8667 153.438 16.8667C155.904 16.8667 157.993 17.7222 159.704 19.4333C161.415 21.1222 162.271 23.2 162.271 25.6667C162.271 28.1333 161.415 30.2222 159.704 31.9333ZM150.204 28.9667C151.071 29.8333 152.149 30.2667 153.438 30.2667C154.726 30.2667 155.804 29.8333 156.671 28.9667C157.538 28.1 157.971 27 157.971 25.6667C157.971 24.3333 157.538 23.2333 156.671 22.3667C155.804 21.5 154.726 21.0667 153.438 21.0667C152.149 21.0667 151.071 21.5 150.204 22.3667C149.36 23.2333 148.938 24.3333 148.938 25.6667C148.938 27 149.36 28.1 150.204 28.9667ZM175.229 16.8667C177.051 16.8667 178.551 17.4778 179.729 18.7C180.929 19.9222 181.529 21.6111 181.529 23.7667V34H177.229V24.3C177.229 23.1889 176.929 22.3444 176.329 21.7667C175.729 21.1667 174.929 20.8667 173.929 20.8667C172.818 20.8667 171.929 21.2111 171.263 21.9C170.596 22.5889 170.263 23.6222 170.263 25V34H165.963V17.3333H170.263V19.2C171.307 17.6444 172.963 16.8667 175.229 16.8667ZM189.501 27.4333C190.079 29.5222 191.645 30.5667 194.201 30.5667C195.845 30.5667 197.09 30.0111 197.934 28.9L201.401 30.9C199.756 33.2778 197.334 34.4667 194.134 34.4667C191.379 34.4667 189.168 33.6333 187.501 31.9667C185.834 30.3 185.001 28.2 185.001 25.6667C185.001 23.1556 185.823 21.0667 187.468 19.4C189.112 17.7111 191.223 16.8667 193.801 16.8667C196.245 16.8667 198.256 17.7111 199.834 19.4C201.434 21.0889 202.234 23.1778 202.234 25.6667C202.234 26.2222 202.179 26.8111 202.068 27.4333H189.501ZM189.434 24.1H197.934C197.69 22.9667 197.179 22.1222 196.401 21.5667C195.645 21.0111 194.779 20.7333 193.801 20.7333C192.645 20.7333 191.69 21.0333 190.934 21.6333C190.179 22.2111 189.679 23.0333 189.434 24.1Z"/>
</mask>
<path d="M57.8258 34.4667C54.1592 34.4667 51.5925 32.9889 50.1258 30.0333L54.0925 27.7667C54.8258 29.2333 56.0703 29.9667 57.8258 29.9667C59.0481 29.9667 59.9592 29.6778 60.5592 29.1C61.1592 28.5222 61.4592 27.7333 61.4592 26.7333V10.6667H66.0258V26.7333C66.0258 29.1778 65.2592 31.0778 63.7258 32.4333C62.1925 33.7889 60.2258 34.4667 57.8258 34.4667ZM84.6743 31.9333C82.9632 33.6222 80.8743 34.4667 78.4076 34.4667C75.941 34.4667 73.8521 33.6222 72.141 31.9333C70.4521 30.2222 69.6076 28.1333 69.6076 25.6667C69.6076 23.2 70.4521 21.1222 72.141 19.4333C73.8521 17.7222 75.941 16.8667 78.4076 16.8667C80.8743 16.8667 82.9632 17.7222 84.6743 19.4333C86.3854 21.1222 87.241 23.2 87.241 25.6667C87.241 28.1333 86.3854 30.2222 84.6743 31.9333ZM75.1743 28.9667C76.041 29.8333 77.1187 30.2667 78.4076 30.2667C79.6965 30.2667 80.7743 29.8333 81.641 28.9667C82.5076 28.1 82.941 27 82.941 25.6667C82.941 24.3333 82.5076 23.2333 81.641 22.3667C80.7743 21.5 79.6965 21.0667 78.4076 21.0667C77.1187 21.0667 76.041 21.5 75.1743 22.3667C74.3298 23.2333 73.9076 24.3333 73.9076 25.6667C73.9076 27 74.3298 28.1 75.1743 28.9667ZM100.108 21.4667H96.3412V28.4C96.3412 28.9778 96.4857 29.4 96.7745 29.6667C97.0634 29.9333 97.4857 30.0889 98.0412 30.1333C98.5968 30.1556 99.2857 30.1444 100.108 30.1V34C97.1523 34.3333 95.0634 34.0556 93.8412 33.1667C92.6412 32.2778 92.0412 30.6889 92.0412 28.4V21.4667H89.1412V17.3333H92.0412V13.9667L96.3412 12.6667V17.3333H100.108V21.4667ZM113.767 16.8667C116.011 16.8667 117.922 17.7222 119.5 19.4333C121.1 21.1222 121.9 23.2 121.9 25.6667C121.9 28.1333 121.1 30.2222 119.5 31.9333C117.922 33.6222 116.011 34.4667 113.767 34.4667C111.433 34.4667 109.633 33.6556 108.367 32.0333V40.6667H104.067V17.3333H108.367V19.3C109.633 17.6778 111.433 16.8667 113.767 16.8667ZM109.667 29.0667C110.533 29.9333 111.633 30.3667 112.967 30.3667C114.3 30.3667 115.4 29.9333 116.267 29.0667C117.156 28.1778 117.6 27.0444 117.6 25.6667C117.6 24.2889 117.156 23.1667 116.267 22.3C115.4 21.4111 114.3 20.9667 112.967 20.9667C111.633 20.9667 110.533 21.4111 109.667 22.3C108.8 23.1667 108.367 24.2889 108.367 25.6667C108.367 27.0444 108.8 28.1778 109.667 29.0667ZM134.866 16.8667C136.688 16.8667 138.188 17.4778 139.366 18.7C140.566 19.9222 141.166 21.6111 141.166 23.7667V34H136.866V24.3C136.866 23.1889 136.566 22.3444 135.966 21.7667C135.366 21.1667 134.566 20.8667 133.566 20.8667C132.455 20.8667 131.566 21.2111 130.899 21.9C130.233 22.5889 129.899 23.6222 129.899 25V34H125.599V10.6667H129.899V19.2C130.944 17.6444 132.599 16.8667 134.866 16.8667ZM159.704 31.9333C157.993 33.6222 155.904 34.4667 153.438 34.4667C150.971 34.4667 148.882 33.6222 147.171 31.9333C145.482 30.2222 144.638 28.1333 144.638 25.6667C144.638 23.2 145.482 21.1222 147.171 19.4333C148.882 17.7222 150.971 16.8667 153.438 16.8667C155.904 16.8667 157.993 17.7222 159.704 19.4333C161.415 21.1222 162.271 23.2 162.271 25.6667C162.271 28.1333 161.415 30.2222 159.704 31.9333ZM150.204 28.9667C151.071 29.8333 152.149 30.2667 153.438 30.2667C154.726 30.2667 155.804 29.8333 156.671 28.9667C157.538 28.1 157.971 27 157.971 25.6667C157.971 24.3333 157.538 23.2333 156.671 22.3667C155.804 21.5 154.726 21.0667 153.438 21.0667C152.149 21.0667 151.071 21.5 150.204 22.3667C149.36 23.2333 148.938 24.3333 148.938 25.6667C148.938 27 149.36 28.1 150.204 28.9667ZM175.229 16.8667C177.051 16.8667 178.551 17.4778 179.729 18.7C180.929 19.9222 181.529 21.6111 181.529 23.7667V34H177.229V24.3C177.229 23.1889 176.929 22.3444 176.329 21.7667C175.729 21.1667 174.929 20.8667 173.929 20.8667C172.818 20.8667 171.929 21.2111 171.263 21.9C170.596 22.5889 170.263 23.6222 170.263 25V34H165.963V17.3333H170.263V19.2C171.307 17.6444 172.963 16.8667 175.229 16.8667ZM189.501 27.4333C190.079 29.5222 191.645 30.5667 194.201 30.5667C195.845 30.5667 197.09 30.0111 197.934 28.9L201.401 30.9C199.756 33.2778 197.334 34.4667 194.134 34.4667C191.379 34.4667 189.168 33.6333 187.501 31.9667C185.834 30.3 185.001 28.2 185.001 25.6667C185.001 23.1556 185.823 21.0667 187.468 19.4C189.112 17.7111 191.223 16.8667 193.801 16.8667C196.245 16.8667 198.256 17.7111 199.834 19.4C201.434 21.0889 202.234 23.1778 202.234 25.6667C202.234 26.2222 202.179 26.8111 202.068 27.4333H189.501ZM189.434 24.1H197.934C197.69 22.9667 197.179 22.1222 196.401 21.5667C195.645 21.0111 194.779 20.7333 193.801 20.7333C192.645 20.7333 191.69 21.0333 190.934 21.6333C190.179 22.2111 189.679 23.0333 189.434 24.1Z" fill="#301466"/>
<path d="M50.1258 30.0333L49.977 29.7729L49.7313 29.9132L49.8571 30.1667L50.1258 30.0333ZM54.0925 27.7667L54.3608 27.6325L54.219 27.3489L53.9437 27.5062L54.0925 27.7667ZM60.5592 29.1L60.7673 29.3161L60.7673 29.3161L60.5592 29.1ZM61.4592 10.6667V10.3667H61.1592V10.6667H61.4592ZM66.0258 10.6667H66.3258V10.3667H66.0258V10.6667ZM63.7258 32.4333L63.5271 32.2086L63.5271 32.2086L63.7258 32.4333ZM57.8258 34.1667C56.0327 34.1667 54.5287 33.8055 53.3005 33.0983C52.0743 32.3923 51.1047 31.331 50.3946 29.9L49.8571 30.1667C50.6137 31.6912 51.6608 32.8466 53.0012 33.6183C54.3397 34.389 55.9524 34.7667 57.8258 34.7667V34.1667ZM50.2747 30.2938L54.2414 28.0271L53.9437 27.5062L49.977 29.7729L50.2747 30.2938ZM53.8242 27.9008C54.2131 28.6787 54.745 29.2752 55.4235 29.6751C56.1009 30.0743 56.906 30.2667 57.8258 30.2667V29.6667C56.9901 29.6667 56.2952 29.4924 55.7282 29.1582C55.1623 28.8248 54.7052 28.3213 54.3608 27.6325L53.8242 27.9008ZM57.8258 30.2667C59.0897 30.2667 60.09 29.9683 60.7673 29.3161L60.3511 28.8839C59.8284 29.3872 59.0064 29.6667 57.8258 29.6667V30.2667ZM60.7673 29.3161C61.4376 28.6706 61.7592 27.7973 61.7592 26.7333H61.1592C61.1592 27.6694 60.8808 28.3738 60.3511 28.8839L60.7673 29.3161ZM61.7592 26.7333V10.6667H61.1592V26.7333H61.7592ZM61.4592 10.9667H66.0258V10.3667H61.4592V10.9667ZM65.7258 10.6667V26.7333H66.3258V10.6667H65.7258ZM65.7258 26.7333C65.7258 29.1101 64.9835 30.921 63.5271 32.2086L63.9246 32.6581C65.5348 31.2345 66.3258 29.2455 66.3258 26.7333H65.7258ZM63.5271 32.2086C62.0579 33.5075 60.166 34.1667 57.8258 34.1667V34.7667C60.2857 34.7667 62.3271 34.0703 63.9246 32.6581L63.5271 32.2086ZM84.6743 31.9333L84.885 32.1469L84.8864 32.1455L84.6743 31.9333ZM72.141 31.9333L71.9274 32.1441L71.9302 32.1468L72.141 31.9333ZM72.141 19.4333L72.3531 19.6455L72.3531 19.6455L72.141 19.4333ZM84.6743 19.4333L84.4621 19.6455L84.4635 19.6468L84.6743 19.4333ZM75.1743 28.9667L74.9594 29.176L74.9622 29.1788L75.1743 28.9667ZM75.1743 22.3667L74.9621 22.1545L74.9594 22.1573L75.1743 22.3667ZM84.4635 31.7198C82.8102 33.3517 80.7977 34.1667 78.4076 34.1667V34.7667C80.9509 34.7667 83.1162 33.8927 84.885 32.1468L84.4635 31.7198ZM78.4076 34.1667C76.0175 34.1667 74.0051 33.3517 72.3517 31.7198L71.9302 32.1468C73.6991 33.8927 75.8644 34.7667 78.4076 34.7667V34.1667ZM72.3545 31.7226C70.7226 30.0692 69.9076 28.0567 69.9076 25.6667H69.3076C69.3076 28.2099 70.1815 30.3752 71.9274 32.1441L72.3545 31.7226ZM69.9076 25.6667C69.9076 23.2767 70.7225 21.2761 72.3531 19.6455L71.9288 19.2212C70.1816 20.9684 69.3076 23.1233 69.3076 25.6667H69.9076ZM72.3531 19.6455C74.0067 17.9918 76.0188 17.1667 78.4076 17.1667V16.5667C75.8631 16.5667 73.6974 17.4526 71.9288 19.2212L72.3531 19.6455ZM78.4076 17.1667C80.7964 17.1667 82.8085 17.9918 84.4622 19.6455L84.8864 19.2212C83.1178 17.4526 80.9521 16.5667 78.4076 16.5667V17.1667ZM84.4635 19.6468C86.1159 21.2777 86.941 23.2779 86.941 25.6667H87.541C87.541 23.1221 86.6549 20.9667 84.885 19.2198L84.4635 19.6468ZM86.941 25.6667C86.941 28.0555 86.1158 30.0676 84.4622 31.7212L84.8864 32.1455C86.655 30.3769 87.541 28.2112 87.541 25.6667H86.941ZM74.9622 29.1788C75.8882 30.1049 77.0437 30.5667 78.4076 30.5667V29.9667C77.1937 29.9667 76.1937 29.5618 75.3864 28.7545L74.9622 29.1788ZM78.4076 30.5667C79.7715 30.5667 80.927 30.1049 81.8531 29.1788L81.4288 28.7545C80.6216 29.5618 79.6215 29.9667 78.4076 29.9667V30.5667ZM81.8531 29.1788C82.7812 28.2506 83.241 27.0719 83.241 25.6667H82.641C82.641 26.9281 82.234 27.9494 81.4288 28.7545L81.8531 29.1788ZM83.241 25.6667C83.241 24.2615 82.7812 23.0827 81.8531 22.1545L81.4288 22.5788C82.234 23.384 82.641 24.4052 82.641 25.6667H83.241ZM81.8531 22.1545C80.927 21.2285 79.7715 20.7667 78.4076 20.7667V21.3667C79.6215 21.3667 80.6216 21.7715 81.4288 22.5788L81.8531 22.1545ZM78.4076 20.7667C77.0437 20.7667 75.8882 21.2285 74.9622 22.1545L75.3864 22.5788C76.1937 21.7715 77.1937 21.3667 78.4076 21.3667V20.7667ZM74.9594 22.1573C74.0546 23.0859 73.6076 24.2638 73.6076 25.6667H74.2076C74.2076 24.4028 74.6051 23.3807 75.3892 22.576L74.9594 22.1573ZM73.6076 25.6667C73.6076 27.0695 74.0546 28.2474 74.9594 29.176L75.3892 28.7573C74.6051 27.9526 74.2076 26.9305 74.2076 25.6667H73.6076ZM100.108 21.4667V21.7667H100.408V21.4667H100.108ZM96.3412 21.4667V21.1667H96.0412V21.4667H96.3412ZM96.7745 29.6667L96.5711 29.8871L96.5711 29.8871L96.7745 29.6667ZM98.0412 30.1333L98.0173 30.4326L98.0292 30.4331L98.0412 30.1333ZM100.108 30.1H100.408V29.7833L100.092 29.8004L100.108 30.1ZM100.108 34L100.142 34.2981L100.408 34.2681V34H100.108ZM93.8412 33.1667L93.6626 33.4077L93.6648 33.4093L93.8412 33.1667ZM92.0412 21.4667H92.3412V21.1667H92.0412V21.4667ZM89.1412 21.4667H88.8412V21.7667H89.1412V21.4667ZM89.1412 17.3333V17.0333H88.8412V17.3333H89.1412ZM92.0412 17.3333V17.6333H92.3412V17.3333H92.0412ZM92.0412 13.9667L91.9544 13.6795L91.7412 13.744V13.9667H92.0412ZM96.3412 12.6667H96.6412V12.2626L96.2544 12.3795L96.3412 12.6667ZM96.3412 17.3333H96.0412V17.6333H96.3412V17.3333ZM100.108 17.3333H100.408V17.0333H100.108V17.3333ZM100.108 21.1667H96.3412V21.7667H100.108V21.1667ZM96.0412 21.4667V28.4H96.6412V21.4667H96.0412ZM96.0412 28.4C96.0412 29.0218 96.1966 29.5414 96.5711 29.8871L96.978 29.4462C96.7748 29.2586 96.6412 28.9337 96.6412 28.4H96.0412ZM96.5711 29.8871C96.9263 30.215 97.4221 30.3848 98.0173 30.4324L98.0651 29.8343C97.5492 29.793 97.2006 29.6517 96.978 29.4462L96.5711 29.8871ZM98.0292 30.4331C98.5975 30.4558 99.2965 30.4443 100.124 30.3996L100.092 29.8004C99.2749 29.8446 98.5961 29.8553 98.0532 29.8336L98.0292 30.4331ZM99.8079 30.1V34H100.408V30.1H99.8079ZM100.074 33.7019C97.1309 34.0338 95.1427 33.7423 94.0177 32.924L93.6648 33.4093C94.9842 34.3688 97.1738 34.6328 100.142 34.2981L100.074 33.7019ZM94.0198 32.9256C92.9301 32.1184 92.3412 30.646 92.3412 28.4H91.7412C91.7412 30.7318 92.3523 32.4371 93.6626 33.4077L94.0198 32.9256ZM92.3412 28.4V21.4667H91.7412V28.4H92.3412ZM92.0412 21.1667H89.1412V21.7667H92.0412V21.1667ZM89.4412 21.4667V17.3333H88.8412V21.4667H89.4412ZM89.1412 17.6333H92.0412V17.0333H89.1412V17.6333ZM92.3412 17.3333V13.9667H91.7412V17.3333H92.3412ZM92.128 14.2538L96.428 12.9538L96.2544 12.3795L91.9544 13.6795L92.128 14.2538ZM96.0412 12.6667V17.3333H96.6412V12.6667H96.0412ZM96.3412 17.6333H100.108V17.0333H96.3412V17.6333ZM99.8079 17.3333V21.4667H100.408V17.3333H99.8079ZM119.5 19.4333L119.279 19.6367L119.282 19.6397L119.5 19.4333ZM119.5 31.9333L119.281 31.7284L119.281 31.7285L119.5 31.9333ZM108.367 32.0333L108.603 31.8487L108.067 31.1617V32.0333H108.367ZM108.367 40.6667V40.9667H108.667V40.6667H108.367ZM104.067 40.6667H103.767V40.9667H104.067V40.6667ZM104.067 17.3333V17.0333H103.767V17.3333H104.067ZM108.367 17.3333H108.667V17.0333H108.367V17.3333ZM108.367 19.3H108.067V20.1717L108.603 19.4846L108.367 19.3ZM109.667 29.0667L109.452 29.2761L109.455 29.2788L109.667 29.0667ZM116.267 29.0667L116.055 28.8545L116.055 28.8545L116.267 29.0667ZM116.267 22.3L116.052 22.5095L116.057 22.5148L116.267 22.3ZM109.667 22.3L109.879 22.5121L109.882 22.5094L109.667 22.3ZM113.767 17.1667C115.924 17.1667 117.756 17.9846 119.28 19.6367L119.721 19.23C118.088 17.4598 116.098 16.5667 113.767 16.5667V17.1667ZM119.282 19.6397C120.826 21.2692 121.6 23.2717 121.6 25.6667H122.2C122.2 23.1283 121.374 20.9752 119.718 19.227L119.282 19.6397ZM121.6 25.6667C121.6 28.0617 120.826 30.0761 119.281 31.7284L119.719 32.1382C121.374 30.3684 122.2 28.205 122.2 25.6667H121.6ZM119.281 31.7285C117.758 33.3587 115.925 34.1667 113.767 34.1667V34.7667C116.097 34.7667 118.087 33.8857 119.719 32.1381L119.281 31.7285ZM113.767 34.1667C111.512 34.1667 109.805 33.3877 108.603 31.8487L108.13 32.218C109.462 33.9234 111.355 34.7667 113.767 34.7667V34.1667ZM108.067 32.0333V40.6667H108.667V32.0333H108.067ZM108.367 40.3667H104.067V40.9667H108.367V40.3667ZM104.367 40.6667V17.3333H103.767V40.6667H104.367ZM104.067 17.6333H108.367V17.0333H104.067V17.6333ZM108.067 17.3333V19.3H108.667V17.3333H108.067ZM108.603 19.4846C109.805 17.9456 111.512 17.1667 113.767 17.1667V16.5667C111.355 16.5667 109.462 17.41 108.13 19.1154L108.603 19.4846ZM109.455 29.2788C110.383 30.2069 111.562 30.6667 112.967 30.6667V30.0667C111.705 30.0667 110.684 29.6597 109.879 28.8545L109.455 29.2788ZM112.967 30.6667C114.372 30.6667 115.551 30.2069 116.479 29.2788L116.055 28.8545C115.249 29.6597 114.228 30.0667 112.967 30.0667V30.6667ZM116.479 29.2788C117.43 28.328 117.9 27.1156 117.9 25.6667H117.3C117.3 26.9733 116.882 28.0276 116.055 28.8545L116.479 29.2788ZM117.9 25.6667C117.9 24.2178 117.43 23.0148 116.476 22.0852L116.057 22.5148C116.882 23.3185 117.3 24.36 117.3 25.6667H117.9ZM116.482 22.0906C115.554 21.1392 114.374 20.6667 112.967 20.6667V21.2667C114.226 21.2667 115.246 21.683 116.052 22.5094L116.482 22.0906ZM112.967 20.6667C111.559 20.6667 110.38 21.1392 109.452 22.0906L109.882 22.5094C110.687 21.683 111.708 21.2667 112.967 21.2667V20.6667ZM109.455 22.0879C108.524 23.018 108.067 24.2201 108.067 25.6667H108.667C108.667 24.3577 109.076 23.3153 109.879 22.5121L109.455 22.0879ZM108.067 25.6667C108.067 27.1133 108.524 28.3248 109.452 29.2761L109.882 28.8572C109.076 28.0307 108.667 26.9756 108.667 25.6667H108.067ZM139.366 18.7L139.15 18.9082L139.152 18.9102L139.366 18.7ZM141.166 34V34.3H141.466V34H141.166ZM136.866 34H136.566V34.3H136.866V34ZM135.966 21.7667L135.754 21.9788L135.758 21.9828L135.966 21.7667ZM130.899 21.9L131.115 22.1086L131.115 22.1086L130.899 21.9ZM129.899 34V34.3H130.199V34H129.899ZM125.599 34H125.299V34.3H125.599V34ZM125.599 10.6667V10.3667H125.299V10.6667H125.599ZM129.899 10.6667H130.199V10.3667H129.899V10.6667ZM129.899 19.2H129.599V20.185L130.148 19.3672L129.899 19.2ZM134.866 17.1667C136.613 17.1667 138.033 17.7493 139.15 18.9082L139.582 18.4918C138.343 17.2063 136.763 16.5667 134.866 16.5667V17.1667ZM139.152 18.9102C140.283 20.0627 140.866 21.6684 140.866 23.7667H141.466C141.466 21.5539 140.848 19.7817 139.58 18.4898L139.152 18.9102ZM140.866 23.7667V34H141.466V23.7667H140.866ZM141.166 33.7H136.866V34.3H141.166V33.7ZM137.166 34V24.3H136.566V34H137.166ZM137.166 24.3C137.166 23.1356 136.85 22.2019 136.174 21.5506L135.758 21.9828C136.281 22.487 136.566 23.2421 136.566 24.3H137.166ZM136.178 21.5545C135.512 20.8883 134.63 20.5667 133.566 20.5667V21.1667C134.502 21.1667 135.22 21.445 135.754 21.9788L136.178 21.5545ZM133.566 20.5667C132.388 20.5667 131.416 20.9347 130.684 21.6914L131.115 22.1086C131.716 21.4875 132.522 21.1667 133.566 21.1667V20.5667ZM130.684 21.6914C129.943 22.4567 129.599 23.5784 129.599 25H130.199C130.199 23.666 130.522 22.7211 131.115 22.1086L130.684 21.6914ZM129.599 25V34H130.199V25H129.599ZM129.899 33.7H125.599V34.3H129.899V33.7ZM125.899 34V10.6667H125.299V34H125.899ZM125.599 10.9667H129.899V10.3667H125.599V10.9667ZM129.599 10.6667V19.2H130.199V10.6667H129.599ZM130.148 19.3672C131.125 17.9128 132.675 17.1667 134.866 17.1667V16.5667C132.523 16.5667 130.763 17.3761 129.65 19.0328L130.148 19.3672ZM159.704 31.9333L159.915 32.1469L159.916 32.1455L159.704 31.9333ZM147.171 31.9333L146.957 32.1441L146.96 32.1468L147.171 31.9333ZM147.171 19.4333L147.383 19.6455L147.383 19.6455L147.171 19.4333ZM159.704 19.4333L159.492 19.6455L159.493 19.6468L159.704 19.4333ZM150.204 28.9667L149.989 29.176L149.992 29.1788L150.204 28.9667ZM150.204 22.3667L149.992 22.1545L149.989 22.1573L150.204 22.3667ZM159.493 31.7198C157.84 33.3517 155.828 34.1667 153.438 34.1667V34.7667C155.981 34.7667 158.146 33.8927 159.915 32.1468L159.493 31.7198ZM153.438 34.1667C151.047 34.1667 149.035 33.3517 147.382 31.7198L146.96 32.1468C148.729 33.8927 150.894 34.7667 153.438 34.7667V34.1667ZM147.384 31.7226C145.753 30.0692 144.938 28.0567 144.938 25.6667H144.338C144.338 28.2099 145.211 30.3752 146.957 32.1441L147.384 31.7226ZM144.938 25.6667C144.938 23.2767 145.752 21.2761 147.383 19.6455L146.959 19.2212C145.212 20.9684 144.338 23.1233 144.338 25.6667H144.938ZM147.383 19.6455C149.037 17.9918 151.049 17.1667 153.438 17.1667V16.5667C150.893 16.5667 148.727 17.4526 146.959 19.2212L147.383 19.6455ZM153.438 17.1667C155.826 17.1667 157.838 17.9918 159.492 19.6455L159.916 19.2212C158.148 17.4526 155.982 16.5667 153.438 16.5667V17.1667ZM159.493 19.6468C161.146 21.2777 161.971 23.2779 161.971 25.6667H162.571C162.571 23.1221 161.685 20.9667 159.915 19.2198L159.493 19.6468ZM161.971 25.6667C161.971 28.0555 161.146 30.0676 159.492 31.7212L159.916 32.1455C161.685 30.3769 162.571 28.2112 162.571 25.6667H161.971ZM149.992 29.1788C150.918 30.1049 152.074 30.5667 153.438 30.5667V29.9667C152.224 29.9667 151.224 29.5618 150.416 28.7545L149.992 29.1788ZM153.438 30.5667C154.801 30.5667 155.957 30.1049 156.883 29.1788L156.459 28.7545C155.652 29.5618 154.651 29.9667 153.438 29.9667V30.5667ZM156.883 29.1788C157.811 28.2506 158.271 27.0719 158.271 25.6667H157.671C157.671 26.9281 157.264 27.9494 156.459 28.7545L156.883 29.1788ZM158.271 25.6667C158.271 24.2615 157.811 23.0827 156.883 22.1545L156.459 22.5788C157.264 23.384 157.671 24.4052 157.671 25.6667H158.271ZM156.883 22.1545C155.957 21.2285 154.801 20.7667 153.438 20.7667V21.3667C154.651 21.3667 155.652 21.7715 156.459 22.5788L156.883 22.1545ZM153.438 20.7667C152.074 20.7667 150.918 21.2285 149.992 22.1545L150.416 22.5788C151.224 21.7715 152.224 21.3667 153.438 21.3667V20.7667ZM149.989 22.1573C149.085 23.0859 148.638 24.2638 148.638 25.6667H149.238C149.238 24.4028 149.635 23.3807 150.419 22.576L149.989 22.1573ZM148.638 25.6667C148.638 27.0695 149.085 28.2474 149.989 29.176L150.419 28.7573C149.635 27.9526 149.238 26.9305 149.238 25.6667H148.638ZM179.729 18.7L179.513 18.9082L179.515 18.9102L179.729 18.7ZM181.529 34V34.3H181.829V34H181.529ZM177.229 34H176.929V34.3H177.229V34ZM176.329 21.7667L176.117 21.9788L176.121 21.9828L176.329 21.7667ZM171.263 21.9L171.478 22.1086L171.478 22.1086L171.263 21.9ZM170.263 34V34.3H170.563V34H170.263ZM165.963 34H165.663V34.3H165.963V34ZM165.963 17.3333V17.0333H165.663V17.3333H165.963ZM170.263 17.3333H170.563V17.0333H170.263V17.3333ZM170.263 19.2H169.963V20.185L170.512 19.3672L170.263 19.2ZM175.229 17.1667C176.977 17.1667 178.396 17.7493 179.513 18.9082L179.945 18.4918C178.706 17.2063 177.126 16.5667 175.229 16.5667V17.1667ZM179.515 18.9102C180.647 20.0627 181.229 21.6684 181.229 23.7667H181.829C181.829 21.5539 181.212 19.7817 179.943 18.4898L179.515 18.9102ZM181.229 23.7667V34H181.829V23.7667H181.229ZM181.529 33.7H177.229V34.3H181.529V33.7ZM177.529 34V24.3H176.929V34H177.529ZM177.529 24.3C177.529 23.1356 177.214 22.2019 176.537 21.5506L176.121 21.9828C176.645 22.487 176.929 23.2421 176.929 24.3H177.529ZM176.541 21.5545C175.875 20.8883 174.994 20.5667 173.929 20.5667V21.1667C174.865 21.1667 175.583 21.445 176.117 21.9788L176.541 21.5545ZM173.929 20.5667C172.751 20.5667 171.779 20.9347 171.047 21.6914L171.478 22.1086C172.079 21.4875 172.885 21.1667 173.929 21.1667V20.5667ZM171.047 21.6914C170.306 22.4567 169.963 23.5784 169.963 25H170.563C170.563 23.666 170.885 22.7211 171.478 22.1086L171.047 21.6914ZM169.963 25V34H170.563V25H169.963ZM170.263 33.7H165.963V34.3H170.263V33.7ZM166.263 34V17.3333H165.663V34H166.263ZM165.963 17.6333H170.263V17.0333H165.963V17.6333ZM169.963 17.3333V19.2H170.563V17.3333H169.963ZM170.512 19.3672C171.488 17.9128 173.039 17.1667 175.229 17.1667V16.5667C172.887 16.5667 171.126 17.3761 170.013 19.0328L170.512 19.3672ZM189.501 27.4333V27.1333H189.107L189.212 27.5133L189.501 27.4333ZM197.934 28.9L198.084 28.6401L197.855 28.5081L197.695 28.7185L197.934 28.9ZM201.401 30.9L201.648 31.0706L201.833 30.8029L201.551 30.6401L201.401 30.9ZM187.501 31.9667L187.289 32.1788L187.289 32.1788L187.501 31.9667ZM187.468 19.4L187.681 19.6107L187.682 19.6093L187.468 19.4ZM199.834 19.4L199.615 19.6048L199.616 19.6063L199.834 19.4ZM202.068 27.4333V27.7333H202.319L202.363 27.4861L202.068 27.4333ZM189.434 24.1L189.142 24.033L189.058 24.4H189.434V24.1ZM197.934 24.1V24.4H198.306L198.227 24.0367L197.934 24.1ZM196.401 21.5667L196.223 21.8084L196.226 21.8108L196.401 21.5667ZM190.934 21.6333L191.116 21.8717L191.121 21.8683L190.934 21.6333ZM189.212 27.5133C189.517 28.6161 190.091 29.4648 190.943 30.0329C191.79 30.5978 192.884 30.8667 194.201 30.8667V30.2667C192.962 30.2667 191.995 30.0133 191.276 29.5337C190.561 29.0574 190.063 28.3395 189.79 27.3534L189.212 27.5133ZM194.201 30.8667C195.92 30.8667 197.261 30.2811 198.173 29.0815L197.695 28.7185C196.918 29.7411 195.77 30.2667 194.201 30.2667V30.8667ZM197.784 29.1599L201.251 31.1599L201.551 30.6401L198.084 28.6401L197.784 29.1599ZM201.154 30.7294C199.572 33.0165 197.248 34.1667 194.134 34.1667V34.7667C197.42 34.7667 199.94 33.5391 201.648 31.0706L201.154 30.7294ZM194.134 34.1667C191.444 34.1667 189.314 33.3554 187.713 31.7545L187.289 32.1788C189.021 33.9112 191.314 34.7667 194.134 34.7667V34.1667ZM187.713 31.7545C186.107 30.1486 185.301 28.127 185.301 25.6667H184.701C184.701 28.273 185.561 30.4514 187.289 32.1788L187.713 31.7545ZM185.301 25.6667C185.301 23.2281 186.096 21.2169 187.681 19.6107L187.254 19.1893C185.55 20.9164 184.701 23.083 184.701 25.6667H185.301ZM187.682 19.6093C189.265 17.9841 191.296 17.1667 193.801 17.1667V16.5667C191.15 16.5667 188.959 17.4381 187.253 19.1907L187.682 19.6093ZM193.801 17.1667C196.168 17.1667 198.097 17.9805 199.615 19.6048L200.053 19.1952C198.415 17.4418 196.323 16.5667 193.801 16.5667V17.1667ZM199.616 19.6063C201.16 21.2354 201.934 23.2487 201.934 25.6667H202.534C202.534 23.1069 201.709 20.9424 200.052 19.1937L199.616 19.6063ZM201.934 25.6667C201.934 26.2023 201.881 26.7735 201.772 27.3806L202.363 27.4861C202.477 26.8488 202.534 26.2421 202.534 25.6667H201.934ZM202.068 27.1333H189.501V27.7333H202.068V27.1333ZM189.434 24.4H197.934V23.8H189.434V24.4ZM198.227 24.0367C197.971 22.8468 197.426 21.9303 196.575 21.3225L196.226 21.8108C196.931 22.3141 197.409 23.0866 197.641 24.1633L198.227 24.0367ZM196.579 21.325C195.769 20.7298 194.84 20.4333 193.801 20.4333V21.0333C194.718 21.0333 195.521 21.2924 196.223 21.8084L196.579 21.325ZM193.801 20.4333C192.591 20.4333 191.566 20.7484 190.748 21.3984L191.121 21.8683C191.813 21.3183 192.699 21.0333 193.801 21.0333V20.4333ZM190.752 21.395C189.933 22.0216 189.399 22.909 189.142 24.033L189.727 24.167C189.958 23.1577 190.425 22.4006 191.116 21.8716L190.752 21.395Z" fill="#301466" mask="url(#path-6-outside-1_4879_15784)"/>
<defs>
<clipPath id="clip0_4879_15784">
<rect width="41.8186" height="40" fill="white" transform="translate(0 5)"/>
</clipPath>
</defs>
</svg>
