<svg width="40" height="40" viewBox="0 0 40 40" fill="none" xmlns="http://www.w3.org/2000/svg">
<path d="M20.718 38.8167C23.5853 38.8167 25.9097 36.4923 25.9097 33.625C25.9097 30.7577 23.5853 28.4333 20.718 28.4333C17.8508 28.4333 15.5264 30.7577 15.5264 33.625C15.5264 36.4923 17.8508 38.8167 20.718 38.8167Z" stroke="#4E4E4E" stroke-width="0.5" stroke-miterlimit="10"/>
<path d="M29.1917 11.3969C32.0589 11.3969 34.3833 9.0725 34.3833 6.20522C34.3833 3.33794 32.0589 1.01355 29.1917 1.01355C26.3244 1.01355 24 3.33794 24 6.20522C24 9.0725 26.3244 11.3969 29.1917 11.3969Z" fill="#FFD502"/>
<path d="M31 7.01355H8C5.23858 7.01355 3 9.25213 3 12.0135V27.0135C3 29.775 5.23858 32.0135 8 32.0135H31C33.7614 32.0135 36 29.775 36 27.0135V12.0135C36 9.25213 33.7614 7.01355 31 7.01355Z" fill="#7733FF"/>
<g style="mix-blend-mode:multiply">
<path d="M16.345 2.01355H9.98828C8.33143 2.01355 6.98828 3.3567 6.98828 5.01355V34.0135C6.98828 35.6704 8.33143 37.0135 9.98828 37.0135H16.345C18.0018 37.0135 19.345 35.6704 19.345 34.0135V5.01355C19.345 3.3567 18.0018 2.01355 16.345 2.01355Z" fill="#99EBEB"/>
</g>
<path d="M22.8649 14.6887C23.6036 14.6887 24.2025 14.0899 24.2025 13.3511C24.2025 12.6124 23.6036 12.0135 22.8649 12.0135C22.1262 12.0135 21.5273 12.6124 21.5273 13.3511C21.5273 14.0899 22.1262 14.6887 22.8649 14.6887Z" fill="white"/>
<path d="M27.5065 14.6887C28.2452 14.6887 28.8441 14.0899 28.8441 13.3511C28.8441 12.6124 28.2452 12.0135 27.5065 12.0135C26.7678 12.0135 26.1689 12.6124 26.1689 13.3511C26.1689 14.0899 26.7678 14.6887 27.5065 14.6887Z" fill="white"/>
<path d="M31.9421 14.6887C32.6808 14.6887 33.2797 14.0899 33.2797 13.3511C33.2797 12.6124 32.6808 12.0135 31.9421 12.0135C31.2033 12.0135 30.6045 12.6124 30.6045 13.3511C30.6045 14.0899 31.2033 14.6887 31.9421 14.6887Z" fill="white"/>
<path d="M22.8649 18.8447C23.6036 18.8447 24.2025 18.2459 24.2025 17.5071C24.2025 16.7684 23.6036 16.1696 22.8649 16.1696C22.1262 16.1696 21.5273 16.7684 21.5273 17.5071C21.5273 18.2459 22.1262 18.8447 22.8649 18.8447Z" fill="white"/>
<path d="M27.5065 18.8447C28.2452 18.8447 28.8441 18.2459 28.8441 17.5071C28.8441 16.7684 28.2452 16.1696 27.5065 16.1696C26.7678 16.1696 26.1689 16.7684 26.1689 17.5071C26.1689 18.2459 26.7678 18.8447 27.5065 18.8447Z" fill="white"/>
<path d="M31.9421 18.8447C32.6808 18.8447 33.2797 18.2459 33.2797 17.5071C33.2797 16.7684 32.6808 16.1696 31.9421 16.1696C31.2033 16.1696 30.6045 16.7684 30.6045 17.5071C30.6045 18.2459 31.2033 18.8447 31.9421 18.8447Z" fill="white"/>
<path d="M22.8649 23.0008C23.6036 23.0008 24.2025 22.402 24.2025 21.6633C24.2025 20.9245 23.6036 20.3257 22.8649 20.3257C22.1262 20.3257 21.5273 20.9245 21.5273 21.6633C21.5273 22.402 22.1262 23.0008 22.8649 23.0008Z" fill="white"/>
<path d="M27.5065 23.0008C28.2452 23.0008 28.8441 22.402 28.8441 21.6633C28.8441 20.9245 28.2452 20.3257 27.5065 20.3257C26.7678 20.3257 26.1689 20.9245 26.1689 21.6633C26.1689 22.402 26.7678 23.0008 27.5065 23.0008Z" fill="white"/>
<path d="M27.5065 28.2023C28.2452 28.2023 28.8441 27.6034 28.8441 26.8647C28.8441 26.126 28.2452 25.5271 27.5065 25.5271C26.7678 25.5271 26.1689 26.126 26.1689 26.8647C26.1689 27.6034 26.7678 28.2023 27.5065 28.2023Z" fill="#33D6D6"/>
<path d="M31.9421 23.0008C32.6808 23.0008 33.2797 22.402 33.2797 21.6633C33.2797 20.9245 32.6808 20.3257 31.9421 20.3257C31.2033 20.3257 30.6045 20.9245 30.6045 21.6633C30.6045 22.402 31.2033 23.0008 31.9421 23.0008Z" fill="white"/>
</svg>
