<svg width="25" height="21" viewBox="0 0 25 21" fill="none" xmlns="http://www.w3.org/2000/svg">
<g clip-path="url(#clip0_927_3074)">
<path d="M15.147 11.6488C15.147 4.94585 18.1068 1.20265 23.8521 0.484476C23.9081 0.462626 23.9703 0.462626 24.0262 0.484476C24.0578 0.507004 24.0839 0.536274 24.1027 0.57015C24.1215 0.604029 24.1326 0.641665 24.135 0.680342L24.135 4.14063C24.1354 4.19097 24.1213 4.24034 24.0942 4.28281C24.0672 4.32529 24.0285 4.35904 23.9827 4.38002C22.7126 5.03793 21.6569 6.04494 20.9398 7.28253C20.2227 8.52013 19.874 9.93681 19.9348 11.3659L23.9827 11.3659C24.0577 11.3659 24.1297 11.3957 24.1828 11.4487C24.2358 11.5018 24.2656 11.5738 24.2656 11.6488L24.2656 20.2016C24.2657 20.2378 24.2583 20.2736 24.2439 20.3068C24.2294 20.34 24.2082 20.3698 24.1816 20.3944C24.155 20.4189 24.1236 20.4377 24.0893 20.4494C24.0551 20.4612 24.0188 20.4657 23.9827 20.4627L15.4082 20.4627C15.3389 20.4627 15.2725 20.4352 15.2235 20.3862C15.1745 20.3373 15.147 20.2708 15.147 20.2016L15.147 11.6488Z" fill="white"/>
<path d="M-0.0209539 11.6481C-0.0209545 5.11922 2.61234 1.70246 8.68416 0.483744L8.85826 0.483744C8.88151 0.554422 8.88151 0.630697 8.85826 0.701376L8.85826 4.13989C8.85659 4.18719 8.84392 4.23346 8.82125 4.27501C8.79859 4.31657 8.76655 4.35227 8.72769 4.37928C7.45184 5.03204 6.39017 6.03729 5.66877 7.27562C4.94737 8.51395 4.59658 9.93332 4.65805 11.3651L8.81474 11.3651C8.88977 11.3651 8.96173 11.3949 9.01479 11.448C9.06785 11.5011 9.09765 11.573 9.09765 11.6481L9.09765 20.2008C9.09778 20.237 9.09038 20.2729 9.07591 20.3061C9.06145 20.3393 9.04024 20.3691 9.01364 20.3936C8.98703 20.4182 8.95561 20.4369 8.92137 20.4487C8.88713 20.4605 8.85082 20.465 8.81474 20.462L0.261963 20.462C0.225883 20.465 0.189571 20.4605 0.155331 20.4487C0.121089 20.437 0.0896683 20.4182 0.0630636 20.3936C0.036459 20.3691 0.0152531 20.3393 0.000789629 20.3061C-0.0136748 20.2729 -0.0210791 20.237 -0.0209532 20.2008L-0.0209539 11.6481Z" fill="white"/>
</g>
<defs>
<clipPath id="clip0_927_3074">
<rect width="24.2655" height="20" fill="white" transform="translate(24.2656 20.4622) rotate(180)"/>
</clipPath>
</defs>
</svg>
