<svg width="40" height="40" viewBox="0 0 40 40" fill="none" xmlns="http://www.w3.org/2000/svg">
<circle cx="27.5" cy="12.5135" r="5.5" stroke="#4E4E4E" stroke-width="0.5" stroke-miterlimit="10"/>
<path d="M31.9052 22.6274C32.4802 22.4747 32.7676 22.3938 32.8754 22.2501C32.9922 22.1063 32.9922 21.8638 32.9922 21.3876V19.2585C32.9922 18.7824 32.9922 18.5488 32.8754 18.3961C32.7586 18.2523 32.4712 18.1715 31.9052 18.0187C29.7581 17.4438 28.4195 15.1978 28.9765 13.0687C29.1292 12.4847 29.2011 12.1883 29.1292 12.0176C29.0573 11.8469 28.8507 11.7301 28.4285 11.4876L26.5329 10.4095C26.1197 10.1759 25.922 10.0591 25.7334 10.0861C25.5537 10.113 25.3471 10.3197 24.9248 10.7329C23.3257 12.332 20.6665 12.332 19.0674 10.7329C18.6542 10.3197 18.4475 10.113 18.2589 10.0861C18.0792 10.0591 17.8726 10.1759 17.4593 10.4095L15.5637 11.4876C15.1505 11.7211 14.9349 11.8469 14.863 12.0176C14.7911 12.1883 14.863 12.4847 15.0157 13.0687C15.5727 15.1978 14.2252 17.4348 12.087 18.0187C11.5121 18.1715 11.2246 18.2523 11.1168 18.3961C11 18.5398 11 18.7824 11 19.2585V21.3876C11 21.8638 11 22.0974 11.1168 22.2501C11.2336 22.3938 11.5211 22.4747 12.087 22.6274C14.2342 23.2024 15.5727 25.4483 15.0157 27.5775C14.863 28.1614 14.7911 28.4579 14.863 28.6286C14.9349 28.7992 15.1415 28.916 15.5637 29.1586L17.4593 30.2366C17.8726 30.4702 18.0702 30.587 18.2589 30.5601C18.4385 30.5331 18.6452 30.3265 19.0674 29.9132C20.6755 28.3141 23.3257 28.3141 24.9338 29.9132C25.3471 30.3265 25.5537 30.5331 25.7423 30.5601C25.922 30.587 26.1286 30.4702 26.5419 30.2366L28.4375 29.1586C28.8507 28.925 29.0663 28.7992 29.1382 28.6286C29.2101 28.4579 29.1382 28.1614 28.9855 27.5775C28.4285 25.4483 29.776 23.2113 31.9142 22.6274H31.9052Z" fill="#99EBEB"/>
<path d="M25.8493 20.3186C25.8493 22.4387 24.1244 24.1636 22.0042 24.1636C19.8841 24.1636 18.1592 22.4387 18.1592 20.3186C18.1592 18.1984 19.8841 16.4735 22.0042 16.4735C24.1244 16.4735 25.8493 18.1984 25.8493 20.3186Z" fill="white"/>
<path d="M22.5784 5.76262C22.8347 5.69516 22.9696 5.65469 23.0236 5.58724C23.0775 5.51979 23.0775 5.41186 23.0775 5.19601V4.22468C23.0775 4.00883 23.0775 3.9009 23.0236 3.83345C22.9696 3.766 22.8347 3.72553 22.5784 3.65807C21.5936 3.38826 20.9865 2.36297 21.2293 1.39164C21.2968 1.12182 21.3372 0.986916 21.2968 0.905972C21.2698 0.825028 21.1619 0.771065 20.973 0.66314L20.1096 0.163985C19.9207 0.0560592 19.8263 0.00209642 19.7453 0.0155871C19.6644 0.0155871 19.57 0.123513 19.3811 0.312382C18.6391 1.04088 17.4249 1.04088 16.6964 0.312382C16.5076 0.123513 16.4131 0.0290778 16.3322 0.0155871C16.2513 0.0155871 16.1568 0.0560592 15.968 0.163985L15.1045 0.66314C14.9157 0.771065 14.8212 0.825028 14.7808 0.905972C14.7538 0.986916 14.7808 1.12182 14.8482 1.39164C15.1045 2.36297 14.484 3.40175 13.4992 3.65807C13.2428 3.72553 13.1079 3.766 13.054 3.83345C13 3.9009 13 4.00883 13 4.22468V5.19601C13 5.41186 13 5.51979 13.054 5.58724C13.1079 5.65469 13.2428 5.69516 13.4992 5.76262C14.484 6.03243 15.0911 7.05772 14.8482 8.02905C14.7808 8.29887 14.7403 8.43377 14.7808 8.51472C14.8078 8.59566 14.9157 8.64962 15.1045 8.75755L15.968 9.25671C16.1568 9.36463 16.2513 9.41859 16.3322 9.4051C16.4131 9.4051 16.5076 9.29718 16.6964 9.10831C17.4384 8.37981 18.6526 8.37981 19.3811 9.10831C19.57 9.29718 19.6644 9.39161 19.7453 9.4051C19.8263 9.4051 19.9207 9.36463 20.1096 9.25671L20.973 8.75755C21.1619 8.64962 21.2563 8.59566 21.2968 8.51472C21.3238 8.43377 21.2968 8.29887 21.2293 8.02905C20.973 7.05772 21.5936 6.01894 22.5784 5.76262Z" fill="#FFD502"/>
<path d="M19.7982 4.69685C19.7982 5.66817 19.0023 6.46412 18.031 6.46412C17.0596 6.46412 16.2637 5.66817 16.2637 4.69685C16.2637 3.72552 17.0596 2.92957 18.031 2.92957C19.0023 2.92957 19.7982 3.72552 19.7982 4.69685Z" fill="#F7F7F7"/>
<g style="mix-blend-mode:multiply">
<path d="M7.12477 4.22701L13.4605 10.5627C13.9839 11.0953 14.2777 11.8115 14.2777 12.5553C14.2777 13.299 13.9839 14.0152 13.4605 14.5478C13.185 14.8233 13.0289 15.2089 13.0289 15.6038C13.0289 15.9986 13.185 16.3751 13.4605 16.6597L19.585 22.7843C19.8605 23.0597 20.2461 23.2158 20.641 23.2158C21.0358 23.2158 21.4123 23.0597 21.6969 22.7843L22.156 22.3068C22.6886 21.7834 23.4048 21.4896 24.1486 21.4896C24.8923 21.4896 25.6086 21.7834 26.1411 22.3068L32.835 29.019C33.0461 29.221 33.2114 29.4689 33.3216 29.7352C33.4318 30.0015 33.4961 30.2953 33.4961 30.5891C33.4961 30.883 33.441 31.1676 33.3216 31.4431C33.2114 31.7094 33.0461 31.9573 32.835 32.1593L32.4493 32.5449C30.4843 34.5008 27.8215 35.6026 25.0484 35.6026C22.2754 35.6026 19.6126 34.5008 17.6476 32.5449L4.05791 18.9553C2.12047 17.0086 1.0186 14.3825 1.00024 11.6371C0.981871 8.88239 2.03783 6.23791 3.94773 4.26374C4.14973 4.05255 4.39765 3.87809 4.66394 3.75872C4.9394 3.63935 5.23323 3.57507 5.52706 3.57507C5.8209 3.57507 6.11473 3.63017 6.39019 3.74035C6.66566 3.85054 6.91358 4.01582 7.12477 4.22701Z" fill="#7733FF"/>
</g>
<path d="M25.8493 20.3186C25.8493 22.4387 24.1244 24.1636 22.0042 24.1636C19.8841 24.1636 18.1592 22.4387 18.1592 20.3186C18.1592 18.1984 19.8841 16.4735 22.0042 16.4735C24.1244 16.4735 25.8493 18.1984 25.8493 20.3186Z" fill="white"/>
</svg>
