<svg width="14" height="14" viewBox="0 0 14 14" fill="none" xmlns="http://www.w3.org/2000/svg">
<path d="M8.18559 1.28935L9.35879 3.65515C9.51879 3.98447 9.94539 4.30036 10.3054 4.36085L12.4318 4.71706C13.7917 4.94558 14.1117 5.94029 13.1317 6.92156L11.4786 8.58836C11.1986 8.87063 11.0453 9.41503 11.1319 9.80489L11.6053 11.8682C11.9785 13.5014 11.1186 14.1332 9.68545 13.2796L7.69232 12.09C7.33239 11.875 6.73912 11.875 6.37245 12.09L4.37937 13.2796C2.95285 14.1332 2.08629 13.4947 2.45958 11.8682L2.93286 9.80489C3.01951 9.41503 2.8662 8.87063 2.58623 8.58836L0.93308 6.92156C-0.0401463 5.94029 0.273154 4.94558 1.633 4.71706L3.75943 4.36085C4.11273 4.30036 4.53935 3.98447 4.69933 3.65515L5.87252 1.28935C6.51245 0.00563267 7.55232 0.00563267 8.18559 1.28935Z" fill="#FFCC00"/>
</svg>
