<svg width="40" height="41" viewBox="0 0 40 41" fill="none" xmlns="http://www.w3.org/2000/svg">
<g clip-path="url(#clip0_847_3959)">
<path d="M28.0029 36.3254C31.5679 36.3254 34.4579 33.4354 34.4579 29.8704C34.4579 26.3054 31.5679 23.4154 28.0029 23.4154C24.4379 23.4154 21.5479 26.3054 21.5479 29.8704C21.5479 33.4354 24.4379 36.3254 28.0029 36.3254Z" stroke="#4E4E4E" stroke-width="0.62167" stroke-miterlimit="10"/>
<path d="M11.0405 11.7034H3.39253C2.75775 11.7034 2.24316 12.3033 2.24316 13.0433V21.5535C2.24316 22.2935 2.75775 22.8934 3.39253 22.8934H11.0405C11.6753 22.8934 12.1899 22.2935 12.1899 21.5535V13.0433C12.1899 12.3033 11.6753 11.7034 11.0405 11.7034Z" fill="#FFD502"/>
<path d="M24.6355 13.6803H35.6639V24.9076C35.6639 27.9538 33.1897 30.4281 30.1435 30.4281C27.0973 30.4281 24.623 27.9538 24.623 24.9076V13.6803H24.6355Z" fill="#99EBEB"/>
<g style="mix-blend-mode:multiply">
<path d="M8.37207 16.0178H28.8374V27.7674C28.8374 33.4121 24.2495 38.0001 18.6048 38.0001C12.96 38.0001 8.37207 33.4121 8.37207 27.7674V16.0178Z" fill="#7733FF"/>
</g>
<g style="mix-blend-mode:multiply">
<path d="M18.6052 14.9858C21.915 14.9858 24.5981 12.3027 24.5981 8.9929C24.5981 5.68311 21.915 3 18.6052 3C15.2954 3 12.6123 5.68311 12.6123 8.9929C12.6123 12.3027 15.2954 14.9858 18.6052 14.9858Z" fill="#472FEB"/>
</g>
<path d="M30.1449 12.6484C32.4658 12.6484 34.3474 10.7669 34.3474 8.4459C34.3474 6.12493 32.4658 4.24341 30.1449 4.24341C27.8239 4.24341 25.9424 6.12493 25.9424 8.4459C25.9424 10.7669 27.8239 12.6484 30.1449 12.6484Z" fill="#7BE6E6"/>
</g>
<defs>
<clipPath id="clip0_847_3959">
<rect width="37.6732" height="35" fill="white" transform="translate(1 3)"/>
</clipPath>
</defs>
</svg>
