<svg width="40" height="40" viewBox="0 0 40 40" fill="none" xmlns="http://www.w3.org/2000/svg">
<g clip-path="url(#clip0_847_3878)">
<path d="M11.718 35.8167C14.5853 35.8167 16.9097 33.4923 16.9097 30.625C16.9097 27.7577 14.5853 25.4333 11.718 25.4333C8.85076 25.4333 6.52637 27.7577 6.52637 30.625C6.52637 33.4923 8.85076 35.8167 11.718 35.8167Z" stroke="#4E4E4E" stroke-width="0.5" stroke-miterlimit="10"/>
<path d="M29.718 14.8167C32.5853 14.8167 34.9097 12.4923 34.9097 9.62502C34.9097 6.75774 32.5853 4.43335 29.718 4.43335C26.8508 4.43335 24.5264 6.75774 24.5264 9.62502C24.5264 12.4923 26.8508 14.8167 29.718 14.8167Z" fill="#FFD502"/>
<path d="M22.6684 8.01355H23.3395C30.8804 8.01355 37 14.1252 37 21.674V22.3452C37 23.6718 36.8105 24.9588 36.4552 26.1749C36.3367 26.5855 36.2657 27.004 36.2657 27.4304V34.2527C36.2657 34.7423 35.8708 35.1371 35.3813 35.1371H28.8827C28.4405 35.1371 27.9983 35.2002 27.5798 35.3345C26.2453 35.7688 24.8161 36.0135 23.3316 36.0135H22.6605C15.1196 36.0135 9 29.9019 9 22.3531V21.6819C9 14.141 15.1117 8.02145 22.6605 8.02145L22.6684 8.01355Z" fill="#99EBEB"/>
<g style="mix-blend-mode:multiply">
<path d="M16.2676 2.08344H15.5592C7.59258 2.08344 1.14258 8.53343 1.14258 16.5001V17.2084C1.14258 18.6084 1.34258 19.9668 1.71758 21.2501C1.84258 21.6834 1.91758 22.1251 1.91758 22.5751V29.7751C1.91758 30.2918 2.33424 30.7084 2.85091 30.7084H9.70091C10.1676 30.7084 10.6342 30.7751 11.0759 30.9168C12.4842 31.3751 13.9926 31.6334 15.5592 31.6334H16.2676C24.2259 31.6334 30.6842 25.1834 30.6842 17.2168V16.5084C30.6842 8.53343 24.2259 2.08344 16.2676 2.08344Z" fill="#7733FF"/>
</g>
<path d="M9 19.0135C10.1046 19.0135 11 18.1181 11 17.0135C11 15.909 10.1046 15.0135 9 15.0135C7.89543 15.0135 7 15.909 7 17.0135C7 18.1181 7.89543 19.0135 9 19.0135Z" fill="white"/>
<path d="M15 19.0135C16.1046 19.0135 17 18.1181 17 17.0135C17 15.909 16.1046 15.0135 15 15.0135C13.8954 15.0135 13 15.909 13 17.0135C13 18.1181 13.8954 19.0135 15 19.0135Z" fill="white"/>
<path d="M21 19.0135C22.1046 19.0135 23 18.1181 23 17.0135C23 15.909 22.1046 15.0135 21 15.0135C19.8954 15.0135 19 15.909 19 17.0135C19 18.1181 19.8954 19.0135 21 19.0135Z" fill="white"/>
</g>
<defs>
<clipPath id="clip0_847_3878">
<rect width="37.5" height="35.8167" fill="white" transform="translate(1.14355 2.08337)"/>
</clipPath>
</defs>
</svg>
