<svg width="14" height="14" viewBox="0 0 14 14" fill="none" xmlns="http://www.w3.org/2000/svg">
<g clip-path="url(#clip0_847_4153)">
<path d="M6.38791 8.68492L2.8958 12.6752H0.995177L5.504 7.52179L5.51198 7.51267L5.50462 7.50304L0.742874 1.27629H4.706L7.46378 4.92223L7.47476 4.93675L7.48674 4.92305L10.6771 1.27629H12.5764L8.36243 6.09282L8.35449 6.1019L8.36176 6.11151L13.3267 12.6752H9.4621L6.41083 8.68568L6.39983 8.6713L6.38791 8.68492ZM9.97816 11.5386L9.97056 11.5444H9.98993H11.0643H11.0941L11.0761 11.5206L4.14151 2.35211L4.14928 2.34623H4.12969H2.97695H2.94697L2.96518 2.37005L9.97816 11.5386Z" fill="#0C2459" stroke="#0C2459" stroke-width="0.0296334"/>
</g>
<defs>
<clipPath id="clip0_847_4153">
<rect width="13.7143" height="13.7143" fill="white" transform="translate(0.141602 0.12915)"/>
</clipPath>
</defs>
</svg>
