<svg width="14" height="14" viewBox="0 0 14 14" fill="none" xmlns="http://www.w3.org/2000/svg">
<g clip-path="url(#clip0_847_4149)">
<path d="M13.0207 3.79742C12.9528 3.52627 12.8146 3.27783 12.62 3.0772C12.4254 2.87657 12.1813 2.73085 11.9123 2.65475C10.9296 2.41479 6.99886 2.41479 6.99886 2.41479C6.99886 2.41479 3.06809 2.41479 2.08539 2.67761C1.81644 2.7537 1.57232 2.89942 1.37771 3.10006C1.1831 3.30069 1.04488 3.54913 0.977007 3.82027C0.79716 4.81757 0.709187 5.82926 0.714194 6.84263C0.707783 7.86363 0.795762 8.88303 0.977007 9.88783C1.05183 10.1506 1.19315 10.3895 1.38731 10.5817C1.58147 10.7739 1.82191 10.9127 2.08539 10.9848C3.06809 11.2476 6.99886 11.2476 6.99886 11.2476C6.99886 11.2476 10.9296 11.2476 11.9123 10.9848C12.1813 10.9087 12.4254 10.763 12.62 10.5623C12.8146 10.3617 12.9528 10.1133 13.0207 9.84213C13.1992 8.85234 13.2871 7.84837 13.2835 6.84263C13.2899 5.82163 13.202 4.80222 13.0207 3.79742Z" stroke="#0C2459" stroke-width="1.28" stroke-linecap="round" stroke-linejoin="round"/>
<path d="M5.71387 8.16151C5.71387 8.40692 5.97873 8.56099 6.19206 8.43967L8.50991 7.12152C8.72565 6.99883 8.72565 6.68789 8.50991 6.56519L6.19206 5.24704C5.97873 5.12572 5.71387 5.2798 5.71387 5.52521V8.16151Z" stroke="#0C2459" stroke-width="1.28" stroke-linecap="round" stroke-linejoin="round"/>
</g>
<defs>
<clipPath id="clip0_847_4149">
<rect width="13.712" height="13.712" fill="white" transform="translate(0.143555 0.12915)"/>
</clipPath>
</defs>
</svg>
